<svg width="490" height="490" viewBox="0 0 490 490" fill="none" xmlns="http://www.w3.org/2000/svg">
<defs>
<linearGradient id="paint0_linear_576_518" x1="332.738" y1="26" x2="332.738" y2="464.006" gradientUnits="userSpaceOnUse">
<stop stop-color="#00FFFF"/>
<stop offset="1" stop-color="#00E708"/>
</linearGradient>
<linearGradient id="paint1_linear_576_518" x1="332.738" y1="26" x2="332.738" y2="464.006" gradientUnits="userSpaceOnUse">
<stop stop-color="#00FFFF"/>
<stop offset="1" stop-color="#00E708"/>
</linearGradient>
<linearGradient id="paint2_linear_576_518" x1="332.738" y1="26" x2="332.738" y2="464.006" gradientUnits="userSpaceOnUse">
<stop stop-color="#00FFFF"/>
<stop offset="1" stop-color="#00E708"/>
</linearGradient>
<linearGradient id="paint3_linear_576_518" x1="332.738" y1="26" x2="332.738" y2="464.006" gradientUnits="userSpaceOnUse">
<stop stop-color="#00FFFF"/>
<stop offset="1" stop-color="#00E708"/>
</linearGradient>
<linearGradient id="paint4_linear_576_518" x1="332.738" y1="26" x2="332.738" y2="464.006" gradientUnits="userSpaceOnUse">
<stop stop-color="#00FFFF"/>
<stop offset="1" stop-color="#00E708"/>
</linearGradient>
<linearGradient id="paint5_linear_576_518" x1="332.738" y1="26" x2="332.738" y2="464.006" gradientUnits="userSpaceOnUse">
<stop stop-color="#00FFFF"/>
<stop offset="1" stop-color="#00E708"/>
</linearGradient>
<linearGradient id="paint6_linear_576_518" x1="332.738" y1="26" x2="332.738" y2="464.006" gradientUnits="userSpaceOnUse">
<stop stop-color="#00FFFF"/>
<stop offset="1" stop-color="#00E708"/>
</linearGradient>
<linearGradient id="paint7_linear_576_518" x1="332.738" y1="26" x2="332.738" y2="464.006" gradientUnits="userSpaceOnUse">
<stop stop-color="#00FFFF"/>
<stop offset="1" stop-color="#00E708"/>
</linearGradient>
<linearGradient id="paint8_linear_576_518" x1="332.738" y1="26" x2="332.738" y2="464.006" gradientUnits="userSpaceOnUse">
<stop stop-color="#00FFFF"/>
<stop offset="1" stop-color="#00E708"/>
</linearGradient>
<linearGradient id="paint9_linear_576_518" x1="332.738" y1="26" x2="332.738" y2="464.006" gradientUnits="userSpaceOnUse">
<stop stop-color="#00FFFF"/>
<stop offset="1" stop-color="#00E708"/>
</linearGradient>
<linearGradient id="paint10_linear_576_518" x1="332.738" y1="26" x2="332.738" y2="464.006" gradientUnits="userSpaceOnUse">
<stop stop-color="#00FFFF"/>
<stop offset="1" stop-color="#00E708"/>
</linearGradient>
<linearGradient id="paint11_linear_576_518" x1="332.738" y1="26" x2="332.738" y2="464.006" gradientUnits="userSpaceOnUse">
<stop stop-color="#00FFFF"/>
<stop offset="1" stop-color="#00E708"/>
</linearGradient>
<linearGradient id="paint12_linear_576_518" x1="332.738" y1="26" x2="332.738" y2="464.006" gradientUnits="userSpaceOnUse">
<stop stop-color="#00FFFF"/>
<stop offset="1" stop-color="#00E708"/>
</linearGradient>
<linearGradient id="paint13_linear_576_518" x1="332.738" y1="26" x2="332.738" y2="464.006" gradientUnits="userSpaceOnUse">
<stop stop-color="#00FFFF"/>
<stop offset="1" stop-color="#00E708"/>
</linearGradient>
<linearGradient id="paint14_linear_576_518" x1="332.738" y1="26" x2="332.738" y2="464.006" gradientUnits="userSpaceOnUse">
<stop stop-color="#00FFFF"/>
<stop offset="1" stop-color="#00E708"/>
</linearGradient>
<linearGradient id="paint15_linear_576_518" x1="332.738" y1="26" x2="332.738" y2="464.006" gradientUnits="userSpaceOnUse">
<stop stop-color="#00FFFF"/>
<stop offset="1" stop-color="#00E708"/>
</linearGradient>
<linearGradient id="paint16_linear_576_518" x1="332.738" y1="26" x2="332.738" y2="464.006" gradientUnits="userSpaceOnUse">
<stop stop-color="#F6DA98"/>
<stop offset="1" stop-color="#F1A397"/>
</linearGradient>
<linearGradient id="paint17_linear_576_518" x1="332.738" y1="26" x2="332.738" y2="464.006" gradientUnits="userSpaceOnUse">
<stop stop-color="#F6DA98"/>
<stop offset="1" stop-color="#F1A397"/>
</linearGradient>
<linearGradient id="paint18_linear_576_518" x1="157.375" y1="26" x2="157.375" y2="464.006" gradientUnits="userSpaceOnUse">
<stop stop-color="#00FFFF"/>
<stop offset="1" stop-color="#00E708"/>
</linearGradient>
<linearGradient id="paint19_linear_576_518" x1="157.375" y1="26" x2="157.375" y2="464.006" gradientUnits="userSpaceOnUse">
<stop stop-color="#00FFFF"/>
<stop offset="1" stop-color="#00E708"/>
</linearGradient>
<linearGradient id="paint20_linear_576_518" x1="157.375" y1="26" x2="157.375" y2="464.006" gradientUnits="userSpaceOnUse">
<stop stop-color="#00FFFF"/>
<stop offset="1" stop-color="#00E708"/>
</linearGradient>
<linearGradient id="paint21_linear_576_518" x1="157.375" y1="26" x2="157.375" y2="464.006" gradientUnits="userSpaceOnUse">
<stop stop-color="#00FFFF"/>
<stop offset="1" stop-color="#00E708"/>
</linearGradient>
<linearGradient id="paint22_linear_576_518" x1="157.375" y1="26" x2="157.375" y2="464.006" gradientUnits="userSpaceOnUse">
<stop stop-color="#00FFFF"/>
<stop offset="1" stop-color="#00E708"/>
</linearGradient>
<linearGradient id="paint23_linear_576_518" x1="157.375" y1="26" x2="157.375" y2="464.006" gradientUnits="userSpaceOnUse">
<stop stop-color="#00FFFF"/>
<stop offset="1" stop-color="#00E708"/>
</linearGradient>
<linearGradient id="paint24_linear_576_518" x1="157.375" y1="26" x2="157.375" y2="464.006" gradientUnits="userSpaceOnUse">
<stop stop-color="#00FFFF"/>
<stop offset="1" stop-color="#00E708"/>
</linearGradient>
<linearGradient id="paint25_linear_576_518" x1="157.375" y1="26" x2="157.375" y2="464.006" gradientUnits="userSpaceOnUse">
<stop stop-color="#00FFFF"/>
<stop offset="1" stop-color="#00E708"/>
</linearGradient>
<linearGradient id="paint26_linear_576_518" x1="153.848" y1="26" x2="153.848" y2="457.188" gradientUnits="userSpaceOnUse">
<stop stop-color="#00FFFF"/>
<stop offset="1" stop-color="#00E708"/>
</linearGradient>
<linearGradient id="paint27_linear_576_518" x1="157.375" y1="26" x2="157.375" y2="464.006" gradientUnits="userSpaceOnUse">
<stop stop-color="#00FFFF"/>
<stop offset="1" stop-color="#00E708"/>
</linearGradient>
<linearGradient id="paint28_linear_576_518" x1="157.375" y1="26" x2="157.375" y2="464.006" gradientUnits="userSpaceOnUse">
<stop stop-color="#00FFFF"/>
<stop offset="1" stop-color="#00E708"/>
</linearGradient>
<linearGradient id="paint29_linear_576_518" x1="157.375" y1="26" x2="157.375" y2="464.006" gradientUnits="userSpaceOnUse">
<stop stop-color="#00FFFF"/>
<stop offset="1" stop-color="#00E708"/>
</linearGradient>
<linearGradient id="paint30_linear_576_518" x1="157.375" y1="26" x2="157.375" y2="464.006" gradientUnits="userSpaceOnUse">
<stop stop-color="#00FFFF"/>
<stop offset="1" stop-color="#00E708"/>
</linearGradient>
<linearGradient id="paint31_linear_576_518" x1="157.375" y1="26" x2="157.375" y2="464.006" gradientUnits="userSpaceOnUse">
<stop stop-color="#00FFFF"/>
<stop offset="1" stop-color="#00E708"/>
</linearGradient>
<linearGradient id="paint32_linear_576_518" x1="157.375" y1="26" x2="157.375" y2="464.006" gradientUnits="userSpaceOnUse">
<stop stop-color="#00FFFF"/>
<stop offset="1" stop-color="#00E708"/>
</linearGradient>
<linearGradient id="paint33_linear_576_518" x1="157.375" y1="26" x2="157.375" y2="464.006" gradientUnits="userSpaceOnUse">
<stop stop-color="#00FFFF"/>
<stop offset="1" stop-color="#00E708"/>
</linearGradient>
<linearGradient id="paint34_linear_576_518" x1="153.848" y1="26" x2="153.848" y2="457.188" gradientUnits="userSpaceOnUse">
<stop stop-color="#F6DA98"/>
<stop offset="1" stop-color="#F1A397"/>
</linearGradient>
<linearGradient id="paint35_linear_576_518" x1="153.848" y1="26" x2="153.848" y2="457.188" gradientUnits="userSpaceOnUse">
<stop stop-color="#F6DA98"/>
<stop offset="1" stop-color="#F1A397"/>
</linearGradient>
<linearGradient id="paint36_linear_576_518" x1="242.414" y1="48.0032" x2="242.414" y2="387.003" gradientUnits="userSpaceOnUse">
<stop stop-color="#F5D798"/>
<stop offset="1" stop-color="#F1AC97"/>
</linearGradient>
</defs>
<circle cx="245" cy="245" r="245" fill="#104C47"/>
<path d="M327.7 248.001C338.163 246.126 344.981 252.273 344.981 262.649C333.461 263.869 325.26 257.61 327.7 248.001Z" fill="url(#paint0_linear_576_518)"/>
<path d="M376.983 255.325C379.003 268.758 372.503 276.076 360.342 274.855C357.495 264.55 362.902 255.935 376.983 255.325Z" fill="url(#paint1_linear_576_518)"/>
<path d="M406.424 212.602C404.504 194.903 396.83 188.29 379.543 189.41L391.704 198.565L378.263 191.852C374.153 206.381 389.784 216.264 406.424 212.602Z" fill="url(#paint2_linear_576_518)"/>
<path d="M340.501 196.124C313.62 190.631 300.297 202.246 300.819 217.485L321.94 205.889L302.099 219.926C313.62 230.912 335.81 220.35 340.501 197.344V196.124Z" fill="url(#paint3_linear_576_518)"/>
<path d="M323.86 176.594C324.5 175.373 325.14 174.763 327.06 174.152H337.301L327.7 172.932C335.245 166.986 344.981 166.828 353.942 175.373C343.061 186.359 333.377 185.89 323.86 176.594Z" fill="url(#paint4_linear_576_518)"/>
<path d="M394.904 138.143C378.263 135.702 368.1 141.299 366.742 152.181L381.463 144.247L368.022 153.401C375.703 159.505 393.624 155.843 394.904 138.143Z" fill="url(#paint5_linear_576_518)"/>
<path d="M369.302 124.716C360.982 128.989 360.458 136.795 364.822 139.974L367.382 133.261L366.102 140.585C372.151 138.582 375.063 130.82 369.302 124.716Z" fill="url(#paint6_linear_576_518)"/>
<path d="M349.461 127.768C330.26 123.496 319.914 133.647 321.3 144.857L334.741 135.702L322.58 146.078C335.72 152.546 347.541 144.247 349.461 127.768Z" fill="url(#paint7_linear_576_518)"/>
<path d="M343.061 107.017L330.9 115.562C330.027 106.874 335.381 99.6932 352.662 99.6932C352.662 114.951 342.375 120.1 332.181 116.782L343.061 107.017Z" fill="url(#paint8_linear_576_518)"/>
<path d="M316.82 80.163L318.74 99.0829C328.143 91.7228 332.821 82.6042 316.18 65.5153C301.459 79.5526 305.89 91.875 316.18 99.0829L316.82 80.163Z" fill="url(#paint9_linear_576_518)"/>
<path d="M263.057 94.2003C264.27 85.1962 268.425 82.6105 282.258 82.6042C279.49 96.02 274.921 98.0489 263.697 96.0313L272.657 88.7074L263.057 94.2003Z" fill="url(#paint10_linear_576_518)"/>
<path d="M289.298 107.627V116.782C296.934 113.514 300.819 105.796 293.779 96.6416C283.538 101.524 282.827 109.678 287.378 115.562L289.298 107.627Z" fill="url(#paint11_linear_576_518)"/>
<path d="M286.098 149.129L274.578 139.974L287.378 147.909C288.018 136.312 278.326 131.08 261.777 133.871C264.491 150.356 274.578 154.012 286.098 149.129Z" fill="url(#paint12_linear_576_518)"/>
<path d="M286.098 176.594L279.058 168.659L284.818 177.204C275.785 177.155 271.063 176.543 272.657 158.284C286.642 163.894 287.979 168.186 286.098 176.594Z" fill="url(#paint13_linear_576_518)"/>
<path d="M279.698 54.5295L284.178 63.6843C289.78 56.7156 288.658 48.4263 277.138 42.3231C271.377 52.6986 273.746 59.4201 280.978 63.074L279.698 54.5295Z" fill="url(#paint14_linear_576_518)"/>
<path d="M286.738 71.0082C281.95 65.5215 278.447 62.9664 269.457 69.7875C276.913 75.4463 280.461 73.9885 286.738 71.0082Z" fill="url(#paint15_linear_576_518)"/>
<path d="M271.377 350.535C269.395 329.379 296.979 325.512 307.859 316.967C320.018 304.349 328.175 301.437 343.701 299.268C334.784 296.063 329.695 294.563 318.74 298.047C317.366 282.934 313.098 279.078 302.099 276.686C313.62 285.841 315.54 303.54 296.338 306.592C280.338 305.981 276.498 283.4 289.938 273.634C331.54 258.987 327.7 288.282 360.342 290.113C393.939 288.127 403.593 279.016 403.864 248.001L395.544 249.832C397.441 268.461 376.343 292.554 346.901 276.076C332.018 263.933 322.757 258.61 298.259 262.038C321.3 231.522 366.742 242.508 376.983 216.264C377.936 213.823 375.063 209.551 371.223 210.771C363.477 217.713 358.796 220.464 350.101 224.199C362.902 213.213 355.862 187.579 392.984 177.204C420.505 183.917 429.466 224.199 392.984 233.964C369.248 234.553 358.814 236.035 355.862 244.949C355.847 248.752 358.368 249.547 361.622 249.832C368.512 243.808 376.515 242.834 394.264 243.118C433.306 238.236 437.146 185.138 401.944 171.711C421.145 148.519 408.985 122.275 385.943 113.731C389.144 88.7074 373.783 75.2804 353.302 72.2288C350.441 49.5566 305.16 28.6953 288.018 66.7359C288.018 69.7875 293.138 71.0082 295.059 69.1772C309.139 47.6098 336.661 51.4779 343.701 71.6185C339.028 71.5268 336.804 71.9247 334.101 74.0598C332.821 76.501 334.101 80.163 336.021 80.163C360.982 77.7217 381.44 88.7074 376.343 110.069C371.09 107.94 368.683 106.225 364.822 102.745C362.262 102.134 359.062 104.576 359.702 106.407C371.223 125.937 387.223 116.172 398.744 134.481C405.773 145.956 403.224 160.115 392.344 166.828C381.463 174.152 366.059 177.375 361.622 183.917C354.326 190.761 352.356 204.251 343.701 215.654C324.884 240.447 302.099 230.912 278.418 263.259C279.413 246.624 284.785 237.527 298.899 223.588C290.829 225.562 286.781 227.07 278.418 235.184C286.268 175.906 330.26 153.401 366.742 160.115C355.862 154.622 333.12 147.055 307.219 166.828C307.481 155.618 306.767 150.041 303.379 141.805C311.474 126.016 316.288 121.521 325.14 118.003C320.97 118.595 318.04 117.356 312.98 122.275C314.745 102.748 309.885 95.4475 295.059 86.2662C309.763 101.771 312.98 116.782 298.899 132.651C290.011 119.658 284.562 115.721 274.578 110.679C271.377 110.069 268.817 113.12 270.097 115.562C291.686 127.85 300.819 143.026 296.979 173.542C271.206 199.923 263.03 217.984 264.337 287.672C264.406 291.333 256.017 291.944 256.017 287.672V47.2057C261.137 31.3374 285.458 29.5064 294.419 47.2057L302.739 44.1541C287.523 15.8015 251.302 23.6422 246.416 47.2057H241.199L241.199 352.117V451.726C232.502 468.1 258.007 468.1 249.314 451.726V386.912C259.626 392.18 264.162 397.76 262.067 429.211C251.052 452.408 280.035 454.455 271.34 429.211V406.697C282.202 415.204 284.093 416.931 283.513 440.81C274.818 463.324 301.483 461.96 291.628 440.81L291.049 421.024L298.584 429.894C304.24 455.897 323.47 427.416 302.642 425.118C278.876 401.921 267.36 394.844 271.34 378.043L322.351 427.165C329.307 448.997 345.537 427.165 328.147 421.024L298.005 392.37L343.219 408.744C358.707 429.888 366.817 390.822 344.958 399.875L306.12 386.23H368.144C386.093 396.627 384.4 366.632 368.144 378.043H291.628C282.933 375.996 272.701 364.663 271.377 350.535Z" fill="url(#paint16_linear_576_518)"/>
<path d="M314.26 320.019L321.94 313.916C342.232 320.374 355.222 315.747 360.982 294.996H369.302C364.182 327.953 336.224 330.528 314.26 320.019Z" fill="url(#paint17_linear_576_518)"/>
<path d="M360.342 274.855C372.503 276.076 379.003 268.758 376.983 255.325C362.902 255.935 357.495 264.55 360.342 274.855ZM360.342 274.855L368.022 266.311M327.7 248.001C338.163 246.126 344.981 252.273 344.981 262.649C333.461 263.869 325.26 257.61 327.7 248.001ZM327.7 248.001L336.021 252.884M277.138 70.3978L286.738 71.0082M286.738 71.0082C281.95 65.5215 278.447 62.9664 269.457 69.7875C276.913 75.4463 280.461 73.9885 286.738 71.0082ZM271.377 350.535C269.395 329.379 296.979 325.512 307.859 316.967C320.018 304.349 328.175 301.437 343.701 299.268C334.784 296.063 329.695 294.563 318.74 298.047C317.366 282.934 313.098 279.078 302.099 276.686C313.62 285.841 315.54 303.54 296.338 306.592C280.338 305.981 276.498 283.4 289.938 273.634C331.54 258.987 327.7 288.282 360.342 290.113C393.939 288.127 403.593 279.016 403.864 248.001L395.544 249.832C397.441 268.461 376.343 292.554 346.901 276.076C332.018 263.933 322.757 258.61 298.259 262.038C321.3 231.522 366.742 242.508 376.983 216.264C377.935 213.823 375.063 209.551 371.223 210.771C363.477 217.713 358.796 220.464 350.101 224.199C362.902 213.213 355.862 187.579 392.984 177.204C420.505 183.917 429.466 224.199 392.984 233.964C369.248 234.553 358.814 236.035 355.862 244.949C355.847 248.752 358.368 249.547 361.622 249.832C368.512 243.808 376.515 242.834 394.264 243.118C433.306 238.236 437.146 185.138 401.944 171.711C421.145 148.519 408.985 122.275 385.943 113.731C389.144 88.7074 373.783 75.2804 353.302 72.2288C350.441 49.5566 305.16 28.6953 288.018 66.7359C288.018 69.7875 293.138 71.0082 295.059 69.1772C309.139 47.6098 336.661 51.4779 343.701 71.6185C339.028 71.5268 336.804 71.9247 334.101 74.0598C332.821 76.501 334.101 80.163 336.021 80.163C360.982 77.7217 381.44 88.7074 376.343 110.069C371.09 107.94 368.683 106.225 364.822 102.745C362.262 102.134 359.062 104.576 359.702 106.407C371.223 125.937 387.223 116.172 398.744 134.481C405.773 145.956 403.224 160.115 392.344 166.828C381.463 174.152 366.059 177.375 361.622 183.917C354.326 190.761 352.356 204.251 343.701 215.654C324.884 240.447 302.099 230.912 278.418 263.259C279.413 246.624 284.785 237.527 298.899 223.588C290.829 225.562 286.781 227.07 278.418 235.184C286.268 175.906 330.26 153.401 366.742 160.115C355.862 154.622 333.12 147.055 307.219 166.828C307.481 155.618 306.767 150.041 303.379 141.805C311.474 126.016 316.288 121.521 325.14 118.003C320.97 118.595 318.04 117.356 312.98 122.275C314.745 102.748 309.885 95.4475 295.059 86.2662C309.763 101.771 312.98 116.782 298.899 132.651C290.011 119.658 284.562 115.721 274.578 110.679C271.377 110.069 268.817 113.12 270.097 115.562C291.686 127.85 300.819 143.026 296.979 173.542C271.206 199.923 263.03 217.984 264.337 287.672C264.406 291.333 256.017 291.944 256.017 287.672V47.2057C261.137 31.3374 285.458 29.5064 294.419 47.2057L302.739 44.1541C287.523 15.8015 251.302 23.6422 246.416 47.2057H241.199L241.199 352.117V451.726C232.502 468.1 258.007 468.1 249.314 451.726V386.912C259.626 392.18 264.162 397.76 262.067 429.211C251.052 452.408 280.035 454.455 271.34 429.211V406.697C282.202 415.204 284.093 416.931 283.513 440.81C274.818 463.324 301.483 461.96 291.628 440.81L291.049 421.024L298.584 429.894C304.24 455.897 323.47 427.416 302.642 425.118C278.876 401.921 267.36 394.844 271.34 378.043L322.351 427.165C329.307 448.997 345.537 427.165 328.147 421.024L298.005 392.37L343.219 408.744C358.707 429.888 366.817 390.822 344.958 399.875L306.12 386.23H368.144C386.093 396.627 384.4 366.632 368.144 378.043H291.628C282.933 375.996 272.701 364.663 271.377 350.535ZM314.26 320.019L321.94 313.916C342.232 320.373 355.222 315.747 360.982 294.996H369.302C364.182 327.953 336.224 330.528 314.26 320.019ZM340.501 196.124C313.62 190.631 300.297 202.246 300.819 217.485L321.94 205.889L302.099 219.926C313.62 230.912 335.81 220.35 340.501 197.344V196.124ZM323.86 176.594C324.5 175.373 325.14 174.763 327.06 174.152H337.301L327.7 172.932C335.245 166.986 344.981 166.828 353.942 175.373C343.061 186.359 333.377 185.89 323.86 176.594ZM286.098 176.594L279.058 168.659L284.818 177.204C275.785 177.155 271.063 176.543 272.657 158.284C286.642 163.894 287.979 168.186 286.098 176.594ZM286.098 149.129L274.578 139.974L287.378 147.909C288.018 136.312 278.326 131.08 261.777 133.871C264.491 150.356 274.578 154.012 286.098 149.129ZM289.298 107.627V116.782C296.934 113.514 300.819 105.796 293.779 96.6416C283.538 101.524 282.827 109.678 287.378 115.562L289.298 107.627ZM263.057 94.2003C264.27 85.1962 268.425 82.6105 282.258 82.6042C279.49 96.02 274.921 98.0489 263.697 96.0313L272.657 88.7074L263.057 94.2003ZM279.698 54.5295L284.178 63.6843C289.78 56.7156 288.658 48.4263 277.138 42.3231C271.377 52.6986 273.746 59.4201 280.978 63.074L279.698 54.5295ZM316.82 80.163L318.74 99.0829C328.143 91.7228 332.821 82.6042 316.18 65.5153C301.459 79.5526 305.89 91.875 316.18 99.0829L316.82 80.163ZM343.061 107.017L330.9 115.562C330.027 106.874 335.381 99.6932 352.662 99.6932C352.662 114.951 342.375 120.1 332.181 116.782L343.061 107.017ZM349.461 127.768C330.26 123.496 319.914 133.647 321.3 144.857L334.741 135.702L322.58 146.078C335.72 152.546 347.541 144.247 349.461 127.768ZM406.424 212.602C404.504 194.903 396.83 188.29 379.543 189.41L391.704 198.565L378.263 191.852C374.153 206.381 389.784 216.264 406.424 212.602ZM369.302 124.716C360.982 128.989 360.458 136.795 364.822 139.974L367.382 133.261L366.102 140.585C372.151 138.582 375.063 130.82 369.302 124.716ZM394.904 138.143C378.263 135.702 368.1 141.299 366.742 152.181L381.463 144.247L368.022 153.401C375.703 159.505 393.624 155.843 394.904 138.143Z" stroke="#062413" stroke-width="1.36451"/>
<path d="M162.413 248.001C151.95 246.126 145.132 252.273 145.132 262.649C156.652 263.869 164.853 257.61 162.413 248.001Z" fill="url(#paint18_linear_576_518)"/>
<path d="M113.13 255.325C111.109 268.758 117.61 276.076 129.771 274.855C132.618 264.55 127.211 255.935 113.13 255.325Z" fill="url(#paint19_linear_576_518)"/>
<path d="M83.6885 212.602C85.6086 194.903 93.2829 188.29 110.57 189.41L98.4093 198.565L111.85 191.852C115.959 206.381 100.329 216.264 83.6885 212.602Z" fill="url(#paint20_linear_576_518)"/>
<path d="M149.612 196.124C176.493 190.631 189.816 202.246 189.294 217.485L168.173 205.889L188.014 219.926C176.493 230.912 154.303 220.35 149.612 197.344V196.124Z" fill="url(#paint21_linear_576_518)"/>
<path d="M166.253 176.594C165.613 175.373 164.973 174.763 163.053 174.152H152.812L162.413 172.932C154.868 166.986 145.132 166.828 136.171 175.373C147.052 186.359 156.736 185.89 166.253 176.594Z" fill="url(#paint22_linear_576_518)"/>
<path d="M95.2091 138.143C111.85 135.702 122.013 141.299 123.371 152.181L108.65 144.247L122.09 153.401C114.41 159.505 96.4892 155.843 95.2091 138.143Z" fill="url(#paint23_linear_576_518)"/>
<path d="M120.81 124.716C129.131 128.989 129.655 136.795 125.291 139.974L122.73 133.261L124.011 140.585C117.962 138.582 115.05 130.82 120.81 124.716Z" fill="url(#paint24_linear_576_518)"/>
<path d="M140.651 127.768C159.852 123.496 170.199 133.647 168.813 144.857L155.372 135.702L167.533 146.078C154.393 152.546 142.572 144.247 140.651 127.768Z" fill="url(#paint25_linear_576_518)"/>
<path d="M147.052 107.017L159.212 115.562C160.086 106.874 154.732 99.6932 137.451 99.6932C137.451 114.951 147.738 120.1 157.932 116.782L147.052 107.017Z" fill="url(#paint26_linear_576_518)"/>
<path d="M173.293 80.163L171.373 99.0829C161.97 91.7228 157.292 82.6043 173.933 65.5153C188.654 79.5527 184.223 91.875 173.933 99.0829L173.293 80.163Z" fill="url(#paint27_linear_576_518)"/>
<path d="M227.056 94.2003C225.843 85.1962 221.688 82.6105 207.855 82.6042C210.623 96.02 215.192 98.0489 226.416 96.0313L217.455 88.7075L227.056 94.2003Z" fill="url(#paint28_linear_576_518)"/>
<path d="M200.815 107.627V116.782C193.179 113.514 189.294 105.796 196.334 96.6416C206.575 101.524 207.286 109.678 202.735 115.562L200.815 107.627Z" fill="url(#paint29_linear_576_518)"/>
<path d="M204.015 149.129L215.535 139.974L202.735 147.909C202.095 136.312 211.787 131.08 228.336 133.871C225.622 150.356 215.535 154.012 204.015 149.129Z" fill="url(#paint30_linear_576_518)"/>
<path d="M204.015 176.594L211.055 168.659L205.295 177.204C214.327 177.155 219.049 176.543 217.455 158.284C203.471 163.894 202.134 168.186 204.015 176.594Z" fill="url(#paint31_linear_576_518)"/>
<path d="M210.415 54.5295L205.935 63.6843C200.333 56.7156 201.455 48.4263 212.975 42.3231C218.735 52.6986 216.367 59.4201 209.135 63.074L210.415 54.5295Z" fill="url(#paint32_linear_576_518)"/>
<path d="M203.375 71.0082C208.163 65.5215 211.665 62.9664 220.656 69.7875C213.199 75.4463 209.651 73.9885 203.375 71.0082Z" fill="url(#paint33_linear_576_518)"/>
<path d="M218.736 350.535C220.718 329.379 193.134 325.512 182.254 316.967C170.095 304.349 161.937 301.437 146.412 299.268C155.329 296.063 160.418 294.563 171.373 298.047C172.746 282.934 177.014 279.078 188.014 276.686C176.493 285.841 174.573 303.54 193.774 306.592C209.775 305.981 213.615 283.4 200.175 273.634C158.572 258.987 162.413 288.282 129.771 290.113C96.1734 288.127 86.5195 279.016 86.2488 248.001L94.5693 249.832C92.6715 268.461 113.77 292.554 143.212 276.076C158.095 263.933 167.356 258.61 191.854 262.038C168.813 231.522 123.371 242.508 113.13 216.264C112.177 213.823 115.05 209.551 118.89 210.771C126.636 217.713 131.317 220.464 140.011 224.199C127.211 213.213 134.251 187.579 97.1292 177.204C69.6078 183.917 60.6473 224.199 97.1292 233.964C120.865 234.553 131.299 236.035 134.251 244.949C134.266 248.752 131.745 249.547 128.491 249.832C121.601 243.808 113.598 242.834 95.8491 243.118C56.8071 238.236 52.9669 185.138 88.1687 171.711C68.9677 148.519 81.1283 122.275 104.169 113.731C100.969 88.7074 116.33 75.2804 136.811 72.2288C139.672 49.5566 184.952 28.6953 202.095 66.7359C202.095 69.7875 196.974 71.0082 195.054 69.1772C180.974 47.6098 153.452 51.4779 146.412 71.6185C151.085 71.5268 153.309 71.9247 156.012 74.0598C157.292 76.501 156.012 80.163 154.092 80.163C129.131 77.7217 108.673 88.7074 113.77 110.069C119.023 107.94 121.43 106.225 125.291 102.745C127.851 102.134 131.051 104.576 130.411 106.407C118.89 125.937 102.889 116.172 91.3689 134.481C84.3399 145.956 86.8887 160.115 97.7692 166.828C108.65 174.152 124.054 177.375 128.491 183.917C135.787 190.761 137.757 204.251 146.412 215.654C165.229 240.447 188.014 230.912 211.695 263.259C210.7 246.624 205.328 237.527 191.214 223.588C199.283 225.562 203.332 227.07 211.695 235.184C203.844 175.906 159.852 153.401 123.371 160.115C134.251 154.622 156.993 147.055 182.894 166.828C182.631 155.618 183.346 150.041 186.734 141.805C178.638 126.016 173.825 121.521 164.973 118.003C169.142 118.595 172.073 117.356 177.133 122.275C175.368 102.748 180.228 95.4476 195.054 86.2662C180.35 101.771 177.133 116.782 191.214 132.651C200.102 119.658 205.551 115.721 215.535 110.679C218.735 110.069 221.296 113.12 220.016 115.562C198.427 127.85 189.294 143.026 193.134 173.542C218.907 199.923 227.083 217.984 225.776 287.672C225.707 291.333 234.096 291.944 234.096 287.672V47.2057C228.976 31.3374 204.655 29.5064 195.694 47.2057L187.374 44.1541C202.59 15.8015 238.811 23.6422 243.697 47.2057L240.798 350.535V386.912C230.487 392.18 225.951 397.76 228.046 429.212C239.061 452.408 210.078 454.455 218.773 429.212V406.697C207.911 415.204 206.02 416.931 206.6 440.81C215.295 463.324 188.63 461.96 198.484 440.81L199.064 421.024L191.528 429.894C185.873 455.897 166.643 427.416 187.471 425.118C211.237 401.921 222.753 394.844 218.773 378.043L167.762 427.165C160.806 448.997 144.575 427.165 161.965 421.024L192.108 392.37L146.894 408.744C131.406 429.888 123.296 390.822 145.155 399.875L183.993 386.23H121.968C104.02 396.627 105.713 366.632 121.968 378.043H198.484C207.179 375.996 217.412 364.663 218.736 350.535Z" fill="url(#paint34_linear_576_518)"/>
<path d="M175.853 320.019L168.173 313.916C147.881 320.374 134.891 315.747 129.131 294.996H120.81C125.931 327.953 153.888 330.528 175.853 320.019Z" fill="url(#paint35_linear_576_518)"/>
<path d="M129.771 274.855C117.61 276.076 111.109 268.758 113.13 255.325C127.211 255.935 132.618 264.55 129.771 274.855ZM129.771 274.855L122.09 266.311M162.413 248.001C151.95 246.126 145.132 252.273 145.132 262.649C156.652 263.869 164.853 257.61 162.413 248.001ZM162.413 248.001L154.092 252.884M212.975 70.3978L203.375 71.0082M203.375 71.0082C208.163 65.5215 211.665 62.9664 220.656 69.7875C213.199 75.4463 209.651 73.9885 203.375 71.0082ZM218.736 350.535C220.718 329.379 193.134 325.512 182.254 316.967C170.095 304.349 161.937 301.437 146.412 299.268C155.329 296.063 160.418 294.563 171.373 298.047C172.746 282.934 177.014 279.078 188.014 276.686C176.493 285.841 174.573 303.54 193.774 306.592C209.775 305.981 213.615 283.4 200.175 273.634C158.572 258.987 162.413 288.282 129.771 290.113C96.1734 288.127 86.5195 279.016 86.2488 248.001L94.5693 249.832C92.6715 268.461 113.77 292.554 143.212 276.076C158.095 263.933 167.356 258.61 191.854 262.038C168.813 231.522 123.371 242.508 113.13 216.264C112.177 213.823 115.05 209.551 118.89 210.771C126.636 217.713 131.317 220.464 140.011 224.199C127.211 213.213 134.251 187.579 97.1292 177.204C69.6078 183.917 60.6473 224.199 97.1292 233.964C120.865 234.553 131.299 236.035 134.251 244.949C134.266 248.752 131.745 249.547 128.491 249.832C121.601 243.808 113.598 242.834 95.8491 243.118C56.8071 238.236 52.9669 185.138 88.1687 171.711C68.9677 148.519 81.1283 122.275 104.169 113.731C100.969 88.7074 116.33 75.2804 136.811 72.2288C139.672 49.5566 184.952 28.6953 202.095 66.7359C202.095 69.7875 196.974 71.0082 195.054 69.1772C180.974 47.6098 153.452 51.4779 146.412 71.6185C151.085 71.5268 153.309 71.9247 156.012 74.0598C157.292 76.501 156.012 80.163 154.092 80.163C129.131 77.7217 108.673 88.7074 113.77 110.069C119.023 107.94 121.43 106.225 125.291 102.745C127.851 102.134 131.051 104.576 130.411 106.407C118.89 125.937 102.889 116.172 91.3689 134.481C84.3399 145.956 86.8887 160.115 97.7692 166.828C108.65 174.152 124.054 177.375 128.491 183.917C135.787 190.761 137.757 204.251 146.412 215.654C165.229 240.447 188.014 230.912 211.695 263.259C210.7 246.624 205.328 237.527 191.214 223.588C199.283 225.562 203.332 227.07 211.695 235.184C203.844 175.906 159.852 153.401 123.371 160.115C134.251 154.622 156.993 147.055 182.894 166.828C182.631 155.618 183.346 150.041 186.734 141.805C178.638 126.016 173.825 121.521 164.973 118.003C169.142 118.595 172.073 117.356 177.133 122.275C175.368 102.748 180.228 95.4476 195.054 86.2662C180.35 101.771 177.133 116.782 191.214 132.651C200.102 119.658 205.551 115.721 215.535 110.679C218.735 110.069 221.296 113.12 220.016 115.562C198.427 127.85 189.294 143.026 193.134 173.542C218.907 199.923 227.083 217.984 225.776 287.672C225.707 291.333 234.096 291.944 234.096 287.672V47.2057C228.976 31.3374 204.655 29.5064 195.694 47.2057L187.374 44.1541C202.59 15.8015 238.811 23.6422 243.697 47.2057L240.798 350.535V386.912C230.487 392.18 225.951 397.76 228.046 429.212C239.061 452.408 210.078 454.455 218.773 429.212V406.697C207.911 415.204 206.02 416.931 206.6 440.81C215.295 463.324 188.63 461.96 198.484 440.81L199.064 421.024L191.528 429.894C185.873 455.897 166.643 427.416 187.471 425.118C211.237 401.921 222.753 394.844 218.773 378.043L167.762 427.165C160.806 448.997 144.575 427.165 161.965 421.024L192.108 392.37L146.894 408.744C131.406 429.888 123.296 390.822 145.155 399.875L183.993 386.23H121.968C104.02 396.627 105.713 366.632 121.968 378.043H198.484C207.179 375.996 217.412 364.663 218.736 350.535ZM175.853 320.019L168.173 313.916C147.881 320.373 134.891 315.747 129.131 294.996H120.81C125.931 327.953 153.888 330.528 175.853 320.019ZM149.612 196.124C176.493 190.631 189.816 202.246 189.294 217.485L168.173 205.889L188.014 219.926C176.493 230.912 154.303 220.35 149.612 197.344V196.124ZM166.253 176.594C165.613 175.373 164.973 174.763 163.053 174.152H152.812L162.413 172.932C154.868 166.986 145.132 166.828 136.171 175.373C147.052 186.359 156.736 185.89 166.253 176.594ZM204.015 176.594L211.055 168.659L205.295 177.204C214.327 177.155 219.049 176.543 217.455 158.284C203.471 163.894 202.134 168.186 204.015 176.594ZM204.015 149.129L215.535 139.974L202.735 147.909C202.095 136.312 211.787 131.08 228.336 133.871C225.622 150.356 215.535 154.012 204.015 149.129ZM200.815 107.627V116.782C193.179 113.514 189.294 105.796 196.334 96.6416C206.575 101.524 207.286 109.678 202.735 115.562L200.815 107.627ZM227.056 94.2003C225.843 85.1962 221.688 82.6105 207.855 82.6042C210.623 96.02 215.192 98.0489 226.416 96.0313L217.455 88.7075L227.056 94.2003ZM210.415 54.5295L205.935 63.6843C200.333 56.7156 201.455 48.4263 212.975 42.3231C218.735 52.6986 216.367 59.4201 209.135 63.074L210.415 54.5295ZM173.293 80.163L171.373 99.0829C161.97 91.7228 157.292 82.6043 173.933 65.5153C188.654 79.5527 184.223 91.875 173.933 99.0829L173.293 80.163ZM147.052 107.017L159.212 115.562C160.086 106.874 154.732 99.6932 137.451 99.6932C137.451 114.951 147.738 120.1 157.932 116.782L147.052 107.017ZM140.651 127.768C159.852 123.496 170.199 133.647 168.813 144.857L155.372 135.702L167.533 146.078C154.393 152.546 142.572 144.247 140.651 127.768ZM83.6885 212.602C85.6086 194.903 93.2829 188.29 110.57 189.41L98.4093 198.565L111.85 191.852C115.959 206.381 100.329 216.264 83.6885 212.602ZM120.81 124.716C129.131 128.989 129.655 136.795 125.291 139.974L122.73 133.261L124.011 140.585C117.962 138.582 115.05 130.82 120.81 124.716ZM95.2091 138.143C111.85 135.702 122.013 141.299 123.371 152.181L108.65 144.247L122.09 153.401C114.41 159.505 96.4892 155.843 95.2091 138.143Z" stroke="#062413" stroke-width="1.36934"/>
<path d="M242.696 48.0032H245.388L242.07 386.25L239.44 387.003L242.696 48.0032Z" fill="url(#paint36_linear_576_518)"/>
<path d="M206.479 449.503C206.479 452.166 204.653 454.253 202.481 454.253C200.31 454.253 198.483 452.166 198.483 449.503C198.483 446.84 200.31 444.753 202.481 444.753C204.653 444.753 206.479 446.84 206.479 449.503Z" fill="#448D9C" stroke="black" stroke-width="0.5"/>
<path d="M355.591 407.003C355.591 409.666 353.764 411.753 351.592 411.753C349.421 411.753 347.594 409.666 347.594 407.003C347.594 404.34 349.421 402.253 351.592 402.253C353.764 402.253 355.591 404.34 355.591 407.003Z" fill="#448D9C" stroke="black" stroke-width="0.5"/>
<path d="M142.332 407.003C142.332 409.666 140.505 411.753 138.334 411.753C136.162 411.753 134.335 409.666 134.335 407.003C134.335 404.34 136.162 402.253 138.334 402.253C140.505 402.253 142.332 404.34 142.332 407.003Z" fill="#448D9C" stroke="black" stroke-width="0.5"/>
<path d="M228.145 439.003C228.145 441.666 226.318 443.753 224.147 443.753C221.975 443.753 220.148 441.666 220.148 439.003C220.148 436.34 221.975 434.253 224.147 434.253C226.318 434.253 228.145 436.34 228.145 439.003Z" fill="#448D9C" stroke="black" stroke-width="0.5"/>
<path d="M291.867 449.003C291.867 451.666 290.041 453.753 287.869 453.753C285.698 453.753 283.871 451.666 283.871 449.003C283.871 446.34 285.698 444.253 287.869 444.253C290.041 444.253 291.867 446.34 291.867 449.003Z" fill="#448D9C" stroke="black" stroke-width="0.5"/>
<path d="M269.777 439.003C269.777 441.666 267.95 443.753 265.779 443.753C263.607 443.753 261.781 441.666 261.781 439.003C261.781 436.34 263.607 434.253 265.779 434.253C267.95 434.253 269.777 436.34 269.777 439.003Z" fill="#448D9C" stroke="black" stroke-width="0.5"/>
</svg>
