<svg xmlns="http://www.w3.org/2000/svg" xmlns:xlink="http://www.w3.org/1999/xlink" width="500" zoomAndPan="magnify" viewBox="0 0 375 374.999991" height="500" preserveAspectRatio="xMidYMid meet" version="1.0"><defs><clipPath id="1f156224ac"><path d="M 92.0625 92.054688 L 283.304688 92.054688 L 283.304688 283.292969 L 92.0625 283.292969 Z M 92.0625 92.054688 " clip-rule="nonzero"/></clipPath></defs><g clip-path="url(#1f156224ac)"><path fill="#ced19e" d="M 98.917969 87.828125 C 98.515625 87.738281 98.585938 87.832031 98.917969 87.828125 C 104.84375 87.796875 93.0625 87.011719 98.917969 87.828125 C 112.089844 89.667969 139.375 95.800781 139.238281 113.039062 C 139.117188 128.207031 129.683594 137.707031 135.023438 151.949219 C 144.859375 178.183594 199.863281 156.472656 208.664062 180.410156 C 217.625 204.800781 167.757812 225.832031 193.257812 242.917969 C 217.738281 259.324219 262.664062 277.917969 291.816406 283.292969 C 302.160156 285.199219 317.136719 272.835938 306.003906 284.332031 C 278.25 312.984375 146.027344 314.714844 130.816406 262.792969 C 121.472656 230.886719 165.746094 210.003906 163.765625 195.191406 C 161.0625 175.011719 125.363281 186.328125 119.5 163.089844 C 113.59375 139.660156 125.972656 142.410156 127.894531 111.660156 C 128.941406 94.910156 94.769531 92.847656 82.273438 79.148438 " fill-opacity="1" fill-rule="evenodd"/></g><path fill="#725822" d="M 220.691406 233.914062 C 220.882812 234.421875 220.699219 235.210938 220.699219 235.734375 C 220.699219 237.917969 220.222656 240.050781 219.390625 242.105469 C 219.105469 242.804688 218.796875 243.496094 218.460938 244.175781 C 218.375 244.355469 218.011719 244.769531 218.027344 244.96875 C 218.03125 245.019531 225.632812 245.003906 225.574219 244.957031 C 224.773438 244.265625 224.066406 242.6875 223.726562 241.796875 C 222.671875 239.027344 222.578125 236.277344 222.992188 233.410156 " fill-opacity="1" fill-rule="evenodd"/><path fill="#725822" d="M 151.496094 147.097656 C 151.632812 147.476562 151.503906 148.070312 151.503906 148.460938 C 151.503906 150.097656 151.160156 151.695312 150.554688 153.238281 C 150.351562 153.761719 150.128906 154.28125 149.886719 154.792969 C 149.820312 154.925781 149.5625 155.234375 149.574219 155.386719 C 149.574219 155.425781 155.066406 155.414062 155.023438 155.375 C 154.445312 154.855469 153.933594 153.675781 153.6875 153.007812 C 152.929688 150.929688 152.859375 148.867188 153.160156 146.71875 " fill-opacity="1" fill-rule="evenodd"/><path fill="#725822" d="M 233.4375 228.121094 C 233.628906 228.625 233.449219 229.417969 233.449219 229.941406 C 233.449219 232.121094 232.972656 234.253906 232.136719 236.3125 C 231.855469 237.007812 231.546875 237.703125 231.210938 238.382812 C 231.121094 238.5625 230.761719 238.976562 230.777344 239.175781 C 230.78125 239.226562 238.378906 239.210938 238.320312 239.160156 C 237.519531 238.46875 236.8125 236.894531 236.472656 236.003906 C 235.421875 233.234375 235.324219 230.480469 235.742188 227.617188 " fill-opacity="1" fill-rule="evenodd"/><path fill="#725822" d="M 160.707031 142.75 C 160.847656 143.132812 160.714844 143.722656 160.714844 144.117188 C 160.714844 145.753906 160.371094 147.351562 159.769531 148.894531 C 159.5625 149.417969 159.339844 149.9375 159.097656 150.445312 C 159.035156 150.582031 158.773438 150.890625 158.785156 151.042969 C 158.789062 151.078125 164.277344 151.066406 164.238281 151.03125 C 163.65625 150.511719 163.148438 149.332031 162.902344 148.660156 C 162.140625 146.585938 162.074219 144.523438 162.371094 142.375 " fill-opacity="1" fill-rule="evenodd"/><path fill="#725822" d="M 122.730469 222.359375 C 122.871094 222.738281 122.738281 223.332031 122.738281 223.722656 C 122.738281 225.359375 122.394531 226.957031 121.792969 228.5 C 121.589844 229.023438 121.363281 229.542969 121.121094 230.054688 C 121.058594 230.1875 120.796875 230.5 120.808594 230.648438 C 120.8125 230.6875 126.304688 230.675781 126.261719 230.636719 C 125.683594 230.121094 125.171875 228.9375 124.925781 228.269531 C 124.164062 226.191406 124.097656 224.128906 124.398438 221.980469 " fill-opacity="1" fill-rule="evenodd"/><path fill="#725822" d="M 246.1875 216.527344 C 246.378906 217.035156 246.195312 217.824219 246.195312 218.347656 C 246.195312 220.53125 245.71875 222.664062 244.886719 224.71875 C 244.601562 225.417969 244.292969 226.109375 243.957031 226.789062 C 243.871094 226.96875 243.507812 227.382812 243.523438 227.582031 C 243.527344 227.632812 251.128906 227.617188 251.070312 227.570312 C 250.269531 226.878906 249.5625 225.300781 249.222656 224.410156 C 248.167969 221.640625 248.074219 218.890625 248.488281 216.023438 " fill-opacity="1" fill-rule="evenodd"/><path fill="#725822" d="M 169.921875 134.058594 C 170.058594 134.441406 169.929688 135.03125 169.929688 135.425781 C 169.929688 137.0625 169.582031 138.660156 168.980469 140.203125 C 168.777344 140.726562 168.554688 141.246094 168.3125 141.753906 C 168.246094 141.890625 167.984375 142.199219 167.996094 142.351562 C 168 142.386719 173.492188 142.375 173.449219 142.339844 C 172.871094 141.820312 172.359375 140.640625 172.113281 139.96875 C 171.351562 137.894531 171.285156 135.832031 171.585938 133.683594 " fill-opacity="1" fill-rule="evenodd"/><path fill="#725822" d="M 131.945312 213.667969 C 132.082031 214.046875 131.953125 214.640625 131.953125 215.035156 C 131.953125 216.667969 131.605469 218.269531 131.003906 219.8125 C 130.800781 220.335938 130.578125 220.851562 130.335938 221.363281 C 130.269531 221.5 130.007812 221.808594 130.019531 221.957031 C 130.023438 221.996094 135.515625 221.984375 135.472656 221.945312 C 134.894531 221.429688 134.382812 220.246094 134.136719 219.578125 C 133.375 217.503906 133.308594 215.4375 133.609375 213.289062 " fill-opacity="1" fill-rule="evenodd"/><path fill="#378339" d="M 221.699219 236.054688 C 221.710938 236.074219 218.386719 236.074219 216.359375 232.210938 C 215.960938 231.453125 214.664062 229.574219 214.878906 228.6875 C 214.976562 228.296875 216.6875 229.644531 216.140625 228.742188 C 215.195312 227.171875 214.285156 225.566406 213.640625 223.882812 C 213.566406 223.691406 212.90625 222.363281 213.144531 222.199219 C 213.363281 222.050781 215.007812 223.359375 215.035156 223.289062 C 215.164062 222.910156 214.503906 221.984375 214.359375 221.636719 C 213.855469 220.410156 213.433594 219.128906 213.144531 217.847656 C 213.097656 217.640625 212.625 216.078125 212.921875 215.9375 C 213.105469 215.851562 214.8125 217.746094 214.84375 217.589844 C 214.96875 216.914062 214.539062 216.023438 214.382812 215.375 C 214.042969 213.984375 213.734375 212.578125 213.515625 211.167969 C 213.445312 210.695312 213.121094 209.796875 213.332031 209.328125 C 213.46875 209.035156 215.3125 211.351562 215.546875 211.136719 C 215.949219 210.769531 215.582031 209.429688 215.546875 209 C 215.410156 207.363281 214.644531 204.785156 215.25 203.191406 C 215.324219 202.992188 216.90625 205.394531 217.054688 205.300781 C 217.371094 205.105469 217.078125 203.933594 217.046875 203.667969 C 216.910156 202.398438 216.792969 201.125 216.742188 199.851562 C 216.726562 199.5 216.582031 198.835938 216.796875 198.511719 C 216.933594 198.304688 218.382812 200.644531 218.71875 200.601562 C 218.996094 200.5625 218.886719 199.222656 218.886719 199.058594 C 218.902344 197.851562 218.386719 195.082031 219.265625 194.050781 C 219.660156 193.589844 220.863281 196.257812 221.234375 196.167969 C 221.574219 196.082031 221.597656 194.894531 221.632812 194.675781 C 221.921875 193.007812 222.265625 191.328125 222.734375 189.691406 C 222.800781 189.445312 223.011719 188.082031 223.464844 188.082031 C 223.953125 188.082031 224.121094 189.734375 224.175781 189.996094 C 224.503906 191.476562 224.863281 192.957031 225.1875 194.4375 C 225.261719 194.769531 225.253906 195.746094 225.632812 195.964844 C 226 196.175781 227.230469 193.8125 227.425781 193.984375 C 227.621094 194.164062 227.449219 194.847656 227.4375 195.0625 C 227.390625 196 227.367188 196.933594 227.261719 197.863281 C 227.230469 198.109375 227 198.871094 227.265625 199.070312 C 227.75 199.433594 228.777344 197.570312 229.222656 197.949219 C 229.523438 198.210938 229.261719 199.03125 229.21875 199.332031 C 229.074219 200.292969 228.195312 202.535156 228.609375 203.4375 C 228.699219 203.636719 230.242188 201.898438 230.488281 202.574219 C 230.925781 203.773438 229.9375 205.925781 229.65625 207.125 C 229.609375 207.320312 229.164062 208.394531 229.425781 208.542969 C 229.863281 208.792969 231.472656 206.957031 231.742188 207.339844 C 232.054688 207.789062 231.460938 209.011719 231.328125 209.453125 C 230.871094 210.992188 229.515625 213.175781 229.550781 214.738281 C 229.558594 215.039062 231.75 213.652344 231.910156 213.875 C 232.140625 214.199219 231.589844 215.054688 231.460938 215.347656 C 230.980469 216.40625 229.332031 218.511719 229.507812 219.648438 C 229.5625 219.996094 231.402344 218.769531 231.695312 219.109375 C 232.011719 219.472656 231.523438 220.222656 231.359375 220.550781 C 230.726562 221.820312 230.015625 223.066406 229.332031 224.320312 C 229.265625 224.441406 228.492188 225.589844 228.671875 225.707031 C 229.128906 226 230.859375 224.246094 231.195312 224.945312 C 231.386719 225.34375 230.875 225.972656 230.683594 226.308594 C 230.15625 227.230469 229.574219 228.128906 228.898438 228.976562 C 228.632812 229.308594 228.019531 229.78125 227.9375 230.191406 C 227.9375 230.203125 230.21875 229.425781 230.207031 230.195312 C 230.195312 230.886719 229.300781 231.753906 228.835938 232.261719 C 227.425781 233.796875 225.117188 236.070312 221.699219 236.054688 Z M 221.699219 236.054688 " fill-opacity="1" fill-rule="evenodd"/><path fill="#378339" d="M 152.226562 148.699219 C 152.234375 148.714844 149.832031 148.71875 148.367188 145.820312 C 148.078125 145.25 147.140625 143.839844 147.296875 143.175781 C 147.367188 142.882812 148.601562 143.894531 148.207031 143.21875 C 147.523438 142.039062 146.867188 140.835938 146.402344 139.574219 C 146.347656 139.429688 145.871094 138.433594 146.042969 138.3125 C 146.199219 138.199219 147.390625 139.183594 147.410156 139.128906 C 147.503906 138.84375 147.023438 138.148438 146.921875 137.886719 C 146.554688 136.96875 146.253906 136.007812 146.042969 135.050781 C 146.011719 134.890625 145.667969 133.71875 145.882812 133.613281 C 146.015625 133.550781 147.25 134.972656 147.269531 134.855469 C 147.359375 134.347656 147.050781 133.679688 146.9375 133.195312 C 146.695312 132.148438 146.46875 131.097656 146.3125 130.039062 C 146.261719 129.6875 146.023438 129.007812 146.179688 128.660156 C 146.277344 128.4375 147.609375 130.175781 147.78125 130.015625 C 148.070312 129.742188 147.804688 128.738281 147.78125 128.414062 C 147.679688 127.183594 147.128906 125.253906 147.5625 124.058594 C 147.617188 123.910156 148.761719 125.710938 148.871094 125.640625 C 149.097656 125.492188 148.886719 124.613281 148.863281 124.414062 C 148.761719 123.464844 148.679688 122.507812 148.644531 121.550781 C 148.632812 121.289062 148.527344 120.792969 148.683594 120.550781 C 148.78125 120.390625 149.828125 122.148438 150.070312 122.113281 C 150.269531 122.085938 150.191406 121.082031 150.195312 120.960938 C 150.207031 120.054688 149.832031 117.976562 150.46875 117.203125 C 150.753906 116.859375 151.621094 118.859375 151.890625 118.789062 C 152.136719 118.726562 152.152344 117.835938 152.179688 117.671875 C 152.386719 116.421875 152.636719 115.164062 152.972656 113.933594 C 153.023438 113.75 153.175781 112.726562 153.5 112.726562 C 153.855469 112.726562 153.972656 113.964844 154.015625 114.164062 C 154.253906 115.273438 154.511719 116.382812 154.746094 117.496094 C 154.800781 117.742188 154.796875 118.476562 155.066406 118.640625 C 155.332031 118.796875 156.222656 117.023438 156.363281 117.15625 C 156.503906 117.289062 156.378906 117.800781 156.371094 117.960938 C 156.339844 118.664062 156.320312 119.363281 156.246094 120.0625 C 156.222656 120.246094 156.054688 120.816406 156.246094 120.96875 C 156.597656 121.242188 157.339844 119.839844 157.660156 120.128906 C 157.878906 120.324219 157.691406 120.9375 157.660156 121.164062 C 157.554688 121.886719 156.921875 123.566406 157.21875 124.242188 C 157.285156 124.390625 158.398438 123.089844 158.578125 123.597656 C 158.894531 124.496094 158.179688 126.109375 157.972656 127.007812 C 157.941406 127.152344 157.621094 127.960938 157.808594 128.070312 C 158.125 128.257812 159.289062 126.882812 159.484375 127.167969 C 159.710938 127.503906 159.277344 128.421875 159.183594 128.753906 C 158.855469 129.90625 157.875 131.542969 157.898438 132.714844 C 157.902344 132.945312 159.488281 131.902344 159.605469 132.070312 C 159.773438 132.3125 159.375 132.953125 159.277344 133.175781 C 158.933594 133.96875 157.742188 135.542969 157.867188 136.398438 C 157.90625 136.65625 159.234375 135.738281 159.449219 135.996094 C 159.675781 136.265625 159.324219 136.828125 159.207031 137.074219 C 158.746094 138.027344 158.234375 138.960938 157.742188 139.898438 C 157.691406 139.992188 157.136719 140.855469 157.261719 140.941406 C 157.59375 141.164062 158.84375 139.847656 159.085938 140.371094 C 159.226562 140.671875 158.859375 141.140625 158.71875 141.390625 C 158.335938 142.085938 157.917969 142.757812 157.425781 143.394531 C 157.234375 143.640625 156.792969 143.996094 156.734375 144.304688 C 156.734375 144.3125 158.382812 143.730469 158.371094 144.308594 C 158.363281 144.824219 157.71875 145.476562 157.382812 145.855469 C 156.363281 147.007812 154.695312 148.714844 152.226562 148.699219 Z M 152.226562 148.699219 " fill-opacity="1" fill-rule="evenodd"/><path fill="#378339" d="M 234.445312 230.257812 C 234.457031 230.28125 231.132812 230.28125 229.105469 226.417969 C 228.710938 225.660156 227.410156 223.777344 227.628906 222.894531 C 227.726562 222.5 229.433594 223.847656 228.890625 222.945312 C 227.941406 221.375 227.035156 219.769531 226.386719 218.085938 C 226.3125 217.894531 225.65625 216.570312 225.894531 216.40625 C 226.109375 216.253906 227.757812 217.566406 227.78125 217.492188 C 227.914062 217.113281 227.25 216.1875 227.109375 215.839844 C 226.601562 214.613281 226.183594 213.332031 225.894531 212.054688 C 225.847656 211.84375 225.375 210.28125 225.671875 210.140625 C 225.855469 210.054688 227.5625 211.949219 227.589844 211.792969 C 227.714844 211.121094 227.289062 210.226562 227.132812 209.578125 C 226.792969 208.1875 226.480469 206.785156 226.265625 205.375 C 226.191406 204.902344 225.867188 204 226.082031 203.535156 C 226.21875 203.238281 228.058594 205.558594 228.296875 205.339844 C 228.695312 204.976562 228.332031 203.636719 228.296875 203.203125 C 228.160156 201.566406 227.394531 198.988281 227.996094 197.394531 C 228.070312 197.199219 229.652344 199.601562 229.804688 199.507812 C 230.121094 199.308594 229.824219 198.136719 229.796875 197.875 C 229.65625 196.605469 229.539062 195.328125 229.492188 194.054688 C 229.476562 193.707031 229.332031 193.042969 229.542969 192.71875 C 229.679688 192.507812 231.128906 194.851562 231.464844 194.804688 C 231.742188 194.769531 231.632812 193.425781 231.636719 193.265625 C 231.652344 192.058594 231.132812 189.285156 232.015625 188.257812 C 232.410156 187.796875 233.613281 190.464844 233.984375 190.371094 C 234.324219 190.285156 234.34375 189.097656 234.382812 188.882812 C 234.667969 187.210938 235.015625 185.535156 235.480469 183.894531 C 235.550781 183.652344 235.761719 182.285156 236.214844 182.285156 C 236.703125 182.285156 236.867188 183.9375 236.925781 184.199219 C 237.253906 185.683594 237.609375 187.160156 237.9375 188.644531 C 238.007812 188.972656 238.003906 189.953125 238.382812 190.171875 C 238.75 190.382812 239.980469 188.015625 240.171875 188.191406 C 240.371094 188.367188 240.195312 189.054688 240.183594 189.269531 C 240.140625 190.203125 240.117188 191.136719 240.007812 192.070312 C 239.980469 192.3125 239.746094 193.074219 240.011719 193.273438 C 240.496094 193.640625 241.527344 191.773438 241.96875 192.15625 C 242.269531 192.414062 242.011719 193.234375 241.964844 193.535156 C 241.824219 194.5 240.945312 196.738281 241.359375 197.644531 C 241.449219 197.839844 242.992188 196.105469 243.238281 196.78125 C 243.675781 197.980469 242.6875 200.132812 242.402344 201.328125 C 242.355469 201.523438 241.914062 202.601562 242.171875 202.746094 C 242.613281 202.996094 244.222656 201.160156 244.492188 201.542969 C 244.804688 201.992188 244.207031 203.214844 244.078125 203.660156 C 243.621094 205.195312 242.265625 207.378906 242.300781 208.941406 C 242.304688 209.246094 244.5 207.855469 244.660156 208.078125 C 244.890625 208.402344 244.339844 209.261719 244.207031 209.554688 C 243.726562 210.613281 242.082031 212.714844 242.257812 213.855469 C 242.3125 214.199219 244.148438 212.976562 244.445312 213.316406 C 244.757812 213.679688 244.273438 214.425781 244.109375 214.757812 C 243.472656 216.027344 242.761719 217.273438 242.082031 218.523438 C 242.011719 218.648438 241.242188 219.796875 241.417969 219.910156 C 241.878906 220.207031 243.605469 218.449219 243.941406 219.152344 C 244.132812 219.550781 243.625 220.175781 243.433594 220.511719 C 242.902344 221.4375 242.324219 222.332031 241.644531 223.179688 C 241.378906 223.511719 240.769531 223.988281 240.6875 224.398438 C 240.683594 224.40625 242.96875 223.632812 242.953125 224.402344 C 242.941406 225.089844 242.046875 225.957031 241.582031 226.464844 C 240.171875 228.003906 237.867188 230.277344 234.445312 230.257812 Z M 234.445312 230.257812 " fill-opacity="1" fill-rule="evenodd"/><path fill="#378339" d="M 161.4375 144.355469 C 161.445312 144.371094 159.042969 144.371094 157.578125 141.472656 C 157.292969 140.90625 156.351562 139.496094 156.511719 138.832031 C 156.582031 138.539062 157.816406 139.546875 157.421875 138.871094 C 156.738281 137.695312 156.082031 136.488281 155.613281 135.226562 C 155.5625 135.085938 155.085938 134.089844 155.257812 133.964844 C 155.414062 133.855469 156.601562 134.835938 156.621094 134.78125 C 156.714844 134.5 156.238281 133.804688 156.132812 133.542969 C 155.769531 132.621094 155.464844 131.660156 155.257812 130.703125 C 155.222656 130.546875 154.878906 129.375 155.097656 129.269531 C 155.226562 129.203125 156.460938 130.625 156.484375 130.507812 C 156.574219 130.003906 156.265625 129.332031 156.152344 128.847656 C 155.90625 127.804688 155.679688 126.753906 155.523438 125.695312 C 155.472656 125.339844 155.238281 124.664062 155.390625 124.3125 C 155.488281 124.09375 156.820312 125.832031 156.992188 125.667969 C 157.28125 125.394531 157.019531 124.390625 156.992188 124.066406 C 156.894531 122.839844 156.339844 120.90625 156.777344 119.710938 C 156.832031 119.5625 157.972656 121.363281 158.082031 121.292969 C 158.3125 121.148438 158.097656 120.269531 158.078125 120.070312 C 157.976562 119.117188 157.890625 118.164062 157.855469 117.207031 C 157.847656 116.945312 157.742188 116.449219 157.894531 116.203125 C 157.992188 116.046875 159.039062 117.804688 159.285156 117.769531 C 159.484375 117.742188 159.402344 116.734375 159.40625 116.613281 C 159.417969 115.707031 159.042969 113.628906 159.679688 112.859375 C 159.964844 112.511719 160.835938 114.515625 161.101562 114.445312 C 161.347656 114.378906 161.363281 113.488281 161.390625 113.328125 C 161.597656 112.074219 161.847656 110.816406 162.183594 109.589844 C 162.234375 109.40625 162.386719 108.382812 162.714844 108.382812 C 163.066406 108.382812 163.1875 109.621094 163.226562 109.816406 C 163.464844 110.929688 163.722656 112.035156 163.960938 113.148438 C 164.011719 113.398438 164.007812 114.128906 164.28125 114.292969 C 164.546875 114.453125 165.4375 112.679688 165.574219 112.808594 C 165.71875 112.941406 165.589844 113.457031 165.585938 113.617188 C 165.550781 114.316406 165.535156 115.019531 165.457031 115.71875 C 165.4375 115.902344 165.265625 116.472656 165.460938 116.621094 C 165.808594 116.894531 166.554688 115.496094 166.875 115.78125 C 167.089844 115.976562 166.902344 116.59375 166.871094 116.816406 C 166.769531 117.539062 166.132812 119.21875 166.429688 119.898438 C 166.496094 120.046875 167.613281 118.742188 167.789062 119.25 C 168.105469 120.148438 167.390625 121.765625 167.1875 122.660156 C 167.152344 122.808594 166.832031 123.613281 167.019531 123.726562 C 167.339844 123.910156 168.5 122.535156 168.695312 122.824219 C 168.921875 123.160156 168.492188 124.074219 168.394531 124.410156 C 168.066406 125.5625 167.085938 127.199219 167.113281 128.371094 C 167.117188 128.597656 168.703125 127.554688 168.816406 127.722656 C 168.984375 127.964844 168.585938 128.609375 168.492188 128.828125 C 168.144531 129.621094 166.953125 131.199219 167.082031 132.054688 C 167.121094 132.3125 168.449219 131.394531 168.660156 131.648438 C 168.890625 131.921875 168.539062 132.480469 168.417969 132.730469 C 167.960938 133.683594 167.445312 134.617188 166.953125 135.554688 C 166.90625 135.648438 166.347656 136.507812 166.476562 136.59375 C 166.808594 136.816406 168.058594 135.5 168.300781 136.023438 C 168.4375 136.324219 168.070312 136.796875 167.929688 137.046875 C 167.550781 137.738281 167.128906 138.410156 166.640625 139.046875 C 166.449219 139.296875 166.007812 139.652344 165.945312 139.960938 C 165.945312 139.964844 167.59375 139.386719 167.585938 139.960938 C 167.578125 140.480469 166.929688 141.128906 166.59375 141.511719 C 165.574219 142.664062 163.910156 144.367188 161.4375 144.355469 Z M 161.4375 144.355469 " fill-opacity="1" fill-rule="evenodd"/><path fill="#378339" d="M 123.460938 223.964844 C 123.46875 223.980469 121.066406 223.980469 119.601562 221.082031 C 119.316406 220.511719 118.378906 219.105469 118.535156 218.441406 C 118.605469 218.144531 119.839844 219.15625 119.445312 218.480469 C 118.761719 217.304688 118.105469 216.097656 117.636719 214.835938 C 117.585938 214.691406 117.109375 213.699219 117.28125 213.574219 C 117.4375 213.460938 118.628906 214.445312 118.644531 214.390625 C 118.738281 214.105469 118.261719 213.414062 118.15625 213.152344 C 117.792969 212.230469 117.488281 211.269531 117.28125 210.3125 C 117.246094 210.15625 116.90625 208.984375 117.121094 208.878906 C 117.253906 208.8125 118.484375 210.234375 118.507812 210.117188 C 118.597656 209.613281 118.289062 208.941406 118.175781 208.457031 C 117.929688 207.414062 117.707031 206.359375 117.550781 205.304688 C 117.496094 204.949219 117.261719 204.273438 117.417969 203.921875 C 117.515625 203.703125 118.84375 205.441406 119.015625 205.277344 C 119.304688 205.003906 119.042969 204 119.015625 203.675781 C 118.917969 202.449219 118.363281 200.515625 118.800781 199.320312 C 118.855469 199.171875 119.996094 200.972656 120.105469 200.902344 C 120.335938 200.757812 120.121094 199.875 120.101562 199.679688 C 120 198.726562 119.917969 197.769531 119.878906 196.816406 C 119.871094 196.554688 119.765625 196.054688 119.917969 195.8125 C 120.015625 195.65625 121.0625 197.410156 121.308594 197.378906 C 121.507812 197.351562 121.429688 196.34375 121.429688 196.222656 C 121.441406 195.316406 121.066406 193.238281 121.703125 192.46875 C 121.988281 192.121094 122.859375 194.121094 123.125 194.054688 C 123.371094 193.988281 123.386719 193.097656 123.414062 192.9375 C 123.621094 191.683594 123.871094 190.425781 124.210938 189.195312 C 124.257812 189.015625 124.410156 187.992188 124.738281 187.992188 C 125.089844 187.992188 125.210938 189.230469 125.253906 189.425781 C 125.488281 190.539062 125.746094 191.644531 125.984375 192.757812 C 126.035156 193.003906 126.03125 193.738281 126.304688 193.902344 C 126.570312 194.0625 127.460938 192.285156 127.601562 192.417969 C 127.742188 192.550781 127.617188 193.066406 127.609375 193.226562 C 127.574219 193.925781 127.558594 194.628906 127.480469 195.328125 C 127.460938 195.511719 127.292969 196.082031 127.484375 196.230469 C 127.832031 196.503906 128.578125 195.105469 128.898438 195.390625 C 129.113281 195.585938 128.925781 196.199219 128.894531 196.425781 C 128.792969 197.148438 128.15625 198.828125 128.457031 199.503906 C 128.519531 199.65625 129.636719 198.351562 129.8125 198.859375 C 130.128906 199.757812 129.414062 201.371094 129.210938 202.269531 C 129.175781 202.414062 128.855469 203.222656 129.042969 203.332031 C 129.363281 203.519531 130.523438 202.144531 130.71875 202.429688 C 130.945312 202.769531 130.515625 203.683594 130.421875 204.015625 C 130.089844 205.167969 129.109375 206.804688 129.136719 207.976562 C 129.140625 208.207031 130.726562 207.164062 130.839844 207.332031 C 131.007812 207.574219 130.609375 208.21875 130.515625 208.4375 C 130.167969 209.230469 128.976562 210.808594 129.105469 211.664062 C 129.144531 211.921875 130.472656 211.003906 130.6875 211.257812 C 130.914062 211.53125 130.5625 212.089844 130.441406 212.339844 C 129.984375 213.292969 129.472656 214.226562 128.976562 215.164062 C 128.929688 215.257812 128.371094 216.117188 128.5 216.203125 C 128.832031 216.425781 130.082031 215.109375 130.324219 215.632812 C 130.460938 215.933594 130.09375 216.402344 129.957031 216.65625 C 129.574219 217.347656 129.152344 218.019531 128.664062 218.65625 C 128.472656 218.902344 128.03125 219.261719 127.96875 219.566406 C 127.96875 219.574219 129.617188 218.992188 129.609375 219.570312 C 129.601562 220.089844 128.953125 220.738281 128.617188 221.117188 C 127.597656 222.273438 125.933594 223.976562 123.460938 223.964844 Z M 123.460938 223.964844 " fill-opacity="1" fill-rule="evenodd"/><path fill="#378339" d="M 247.195312 218.667969 C 247.207031 218.6875 243.882812 218.691406 241.855469 214.824219 C 241.457031 214.066406 240.160156 212.1875 240.378906 211.304688 C 240.472656 210.910156 242.183594 212.257812 241.636719 211.355469 C 240.691406 209.785156 239.78125 208.179688 239.136719 206.496094 C 239.0625 206.304688 238.402344 204.980469 238.640625 204.816406 C 238.859375 204.664062 240.503906 205.976562 240.53125 205.902344 C 240.660156 205.523438 240 204.597656 239.855469 204.25 C 239.351562 203.023438 238.929688 201.742188 238.640625 200.464844 C 238.59375 200.253906 238.121094 198.691406 238.417969 198.550781 C 238.601562 198.464844 240.308594 200.359375 240.339844 200.203125 C 240.464844 199.53125 240.035156 198.636719 239.878906 197.988281 C 239.539062 196.597656 239.230469 195.195312 239.015625 193.785156 C 238.941406 193.3125 238.617188 192.410156 238.828125 191.945312 C 238.964844 191.648438 240.808594 193.96875 241.042969 193.75 C 241.445312 193.382812 241.078125 192.046875 241.042969 191.613281 C 240.90625 189.976562 240.140625 187.398438 240.746094 185.804688 C 240.820312 185.609375 242.402344 188.011719 242.554688 187.917969 C 242.867188 187.71875 242.574219 186.546875 242.546875 186.285156 C 242.40625 185.015625 242.289062 183.738281 242.238281 182.464844 C 242.226562 182.117188 242.082031 181.453125 242.292969 181.125 C 242.429688 180.917969 243.878906 183.261719 244.214844 183.214844 C 244.492188 183.179688 244.382812 181.835938 244.382812 181.675781 C 244.398438 180.46875 243.882812 177.695312 244.761719 176.667969 C 245.160156 176.207031 246.363281 178.875 246.730469 178.78125 C 247.070312 178.695312 247.09375 177.507812 247.128906 177.292969 C 247.417969 175.621094 247.761719 173.945312 248.230469 172.304688 C 248.300781 172.0625 248.511719 170.695312 248.960938 170.695312 C 249.449219 170.695312 249.617188 172.347656 249.671875 172.609375 C 250 174.09375 250.359375 175.570312 250.683594 177.054688 C 250.757812 177.382812 250.75 178.363281 251.128906 178.578125 C 251.496094 178.792969 252.730469 176.425781 252.921875 176.601562 C 253.117188 176.777344 252.945312 177.464844 252.933594 177.679688 C 252.886719 178.613281 252.863281 179.546875 252.757812 180.480469 C 252.730469 180.722656 252.496094 181.484375 252.761719 181.683594 C 253.246094 182.050781 254.277344 180.183594 254.71875 180.566406 C 255.019531 180.824219 254.757812 181.644531 254.714844 181.945312 C 254.574219 182.910156 253.691406 185.148438 254.105469 186.050781 C 254.195312 186.25 255.742188 184.515625 255.984375 185.191406 C 256.421875 186.390625 255.433594 188.542969 255.152344 189.738281 C 255.105469 189.933594 254.660156 191.011719 254.921875 191.15625 C 255.363281 191.40625 256.96875 189.570312 257.238281 189.953125 C 257.554688 190.402344 256.957031 191.625 256.824219 192.070312 C 256.371094 193.605469 255.011719 195.789062 255.046875 197.351562 C 255.054688 197.65625 257.246094 196.265625 257.40625 196.488281 C 257.636719 196.8125 257.089844 197.671875 256.957031 197.964844 C 256.476562 199.023438 254.828125 201.125 255.003906 202.265625 C 255.058594 202.609375 256.898438 201.386719 257.191406 201.726562 C 257.507812 202.089844 257.019531 202.835938 256.855469 203.167969 C 256.222656 204.4375 255.511719 205.679688 254.828125 206.933594 C 254.761719 207.058594 253.988281 208.207031 254.167969 208.320312 C 254.625 208.617188 256.355469 206.859375 256.691406 207.558594 C 256.882812 207.960938 256.375 208.585938 256.183594 208.921875 C 255.652344 209.847656 255.070312 210.742188 254.394531 211.589844 C 254.128906 211.921875 253.515625 212.398438 253.433594 212.808594 C 253.433594 212.816406 255.714844 212.039062 255.703125 212.808594 C 255.691406 213.5 254.796875 214.367188 254.332031 214.875 C 252.921875 216.414062 250.617188 218.6875 247.195312 218.667969 Z M 247.195312 218.667969 " fill-opacity="1" fill-rule="evenodd"/><path fill="#378339" d="M 170.648438 135.664062 C 170.65625 135.679688 168.253906 135.679688 166.792969 132.78125 C 166.503906 132.214844 165.566406 130.804688 165.722656 130.140625 C 165.792969 129.847656 167.027344 130.859375 166.632812 130.179688 C 165.949219 129.003906 165.292969 127.796875 164.824219 126.535156 C 164.773438 126.394531 164.296875 125.398438 164.46875 125.277344 C 164.625 125.164062 165.816406 126.144531 165.832031 126.089844 C 165.925781 125.808594 165.449219 125.113281 165.347656 124.851562 C 164.980469 123.933594 164.675781 122.972656 164.46875 122.011719 C 164.433594 121.855469 164.09375 120.683594 164.308594 120.578125 C 164.441406 120.511719 165.675781 121.9375 165.695312 121.816406 C 165.785156 121.3125 165.476562 120.644531 165.363281 120.15625 C 165.117188 119.113281 164.894531 118.0625 164.738281 117.003906 C 164.683594 116.648438 164.449219 115.972656 164.605469 115.625 C 164.703125 115.402344 166.035156 117.140625 166.203125 116.980469 C 166.492188 116.703125 166.230469 115.699219 166.203125 115.375 C 166.105469 114.148438 165.550781 112.214844 165.988281 111.019531 C 166.042969 110.875 167.1875 112.675781 167.296875 112.605469 C 167.523438 112.457031 167.308594 111.578125 167.289062 111.378906 C 167.1875 110.429688 167.105469 109.472656 167.066406 108.515625 C 167.058594 108.253906 166.953125 107.757812 167.105469 107.511719 C 167.207031 107.355469 168.253906 109.113281 168.496094 109.078125 C 168.695312 109.050781 168.617188 108.046875 168.617188 107.925781 C 168.628906 107.019531 168.253906 104.9375 168.890625 104.167969 C 169.179688 103.820312 170.046875 105.824219 170.316406 105.753906 C 170.558594 105.691406 170.574219 104.800781 170.601562 104.636719 C 170.808594 103.386719 171.058594 102.125 171.398438 100.898438 C 171.445312 100.714844 171.601562 99.691406 171.925781 99.691406 C 172.277344 99.691406 172.398438 100.929688 172.441406 101.125 C 172.675781 102.238281 172.9375 103.347656 173.171875 104.457031 C 173.222656 104.707031 173.21875 105.441406 173.492188 105.601562 C 173.757812 105.761719 174.648438 103.988281 174.789062 104.117188 C 174.929688 104.25 174.804688 104.765625 174.796875 104.925781 C 174.761719 105.628906 174.746094 106.328125 174.667969 107.027344 C 174.648438 107.210938 174.480469 107.78125 174.671875 107.929688 C 175.023438 108.203125 175.765625 106.804688 176.085938 107.089844 C 176.304688 107.285156 176.117188 107.902344 176.082031 108.128906 C 175.980469 108.847656 175.34375 110.527344 175.644531 111.207031 C 175.707031 111.355469 176.824219 110.050781 177.003906 110.558594 C 177.316406 111.457031 176.601562 113.074219 176.398438 113.972656 C 176.367188 114.117188 176.046875 114.921875 176.234375 115.035156 C 176.550781 115.222656 177.714844 113.84375 177.90625 114.132812 C 178.132812 114.46875 177.703125 115.386719 177.609375 115.71875 C 177.277344 116.871094 176.300781 118.507812 176.324219 119.679688 C 176.328125 119.90625 177.914062 118.863281 178.027344 119.03125 C 178.195312 119.277344 177.796875 119.917969 177.703125 120.136719 C 177.355469 120.929688 176.167969 122.507812 176.292969 123.363281 C 176.332031 123.621094 177.660156 122.703125 177.875 122.960938 C 178.101562 123.230469 177.75 123.792969 177.628906 124.039062 C 177.171875 124.992188 176.660156 125.925781 176.167969 126.863281 C 176.117188 126.957031 175.558594 127.820312 175.6875 127.902344 C 176.019531 128.125 177.269531 126.808594 177.511719 127.335938 C 177.648438 127.632812 177.28125 128.105469 177.144531 128.355469 C 176.761719 129.046875 176.339844 129.71875 175.851562 130.355469 C 175.660156 130.605469 175.21875 130.960938 175.160156 131.269531 C 175.15625 131.277344 176.808594 130.695312 176.796875 131.269531 C 176.789062 131.789062 176.144531 132.4375 175.804688 132.820312 C 174.789062 133.972656 173.121094 135.675781 170.648438 135.664062 Z M 170.648438 135.664062 " fill-opacity="1" fill-rule="evenodd"/><path fill="#378339" d="M 132.671875 215.273438 C 132.683594 215.289062 130.28125 215.289062 128.816406 212.390625 C 128.527344 211.824219 127.589844 210.414062 127.746094 209.75 C 127.816406 209.457031 129.050781 210.464844 128.65625 209.789062 C 127.972656 208.613281 127.316406 207.40625 126.851562 206.144531 C 126.796875 206.003906 126.320312 205.007812 126.492188 204.882812 C 126.648438 204.773438 127.839844 205.753906 127.855469 205.699219 C 127.953125 205.414062 127.472656 204.722656 127.371094 204.460938 C 127.003906 203.539062 126.699219 202.578125 126.492188 201.621094 C 126.457031 201.464844 126.117188 200.292969 126.332031 200.1875 C 126.464844 200.121094 127.699219 201.542969 127.71875 201.425781 C 127.808594 200.921875 127.5 200.25 127.386719 199.765625 C 127.140625 198.722656 126.917969 197.667969 126.761719 196.613281 C 126.707031 196.257812 126.472656 195.582031 126.628906 195.230469 C 126.726562 195.011719 128.058594 196.75 128.226562 196.585938 C 128.515625 196.3125 128.253906 195.308594 128.226562 194.984375 C 128.128906 193.757812 127.574219 191.824219 128.011719 190.628906 C 128.066406 190.480469 129.210938 192.28125 129.320312 192.210938 C 129.546875 192.066406 129.335938 191.183594 129.3125 190.988281 C 129.210938 190.035156 129.128906 189.078125 129.09375 188.125 C 129.082031 187.863281 128.976562 187.363281 129.128906 187.121094 C 129.230469 186.964844 130.277344 188.71875 130.519531 188.6875 C 130.71875 188.660156 130.640625 187.652344 130.640625 187.53125 C 130.652344 186.625 130.28125 184.546875 130.914062 183.777344 C 131.203125 183.429688 132.070312 185.429688 132.339844 185.363281 C 132.582031 185.296875 132.601562 184.40625 132.625 184.246094 C 132.832031 182.992188 133.082031 181.734375 133.421875 180.507812 C 133.472656 180.324219 133.625 179.300781 133.949219 179.300781 C 134.304688 179.300781 134.421875 180.539062 134.464844 180.734375 C 134.699219 181.847656 134.960938 182.953125 135.195312 184.066406 C 135.246094 184.3125 135.242188 185.046875 135.515625 185.210938 C 135.78125 185.371094 136.671875 183.59375 136.8125 183.726562 C 136.953125 183.859375 136.828125 184.375 136.820312 184.535156 C 136.785156 185.234375 136.769531 185.9375 136.691406 186.636719 C 136.671875 186.820312 136.503906 187.390625 136.695312 187.539062 C 137.046875 187.8125 137.789062 186.414062 138.109375 186.699219 C 138.328125 186.894531 138.140625 187.507812 138.105469 187.734375 C 138.003906 188.457031 137.367188 190.136719 137.667969 190.816406 C 137.730469 190.964844 138.847656 189.660156 139.027344 190.167969 C 139.339844 191.066406 138.628906 192.679688 138.421875 193.578125 C 138.390625 193.726562 138.070312 194.53125 138.257812 194.640625 C 138.574219 194.828125 139.738281 193.453125 139.929688 193.742188 C 140.160156 194.078125 139.726562 194.992188 139.632812 195.324219 C 139.304688 196.476562 138.324219 198.117188 138.347656 199.289062 C 138.351562 199.515625 139.9375 198.472656 140.054688 198.640625 C 140.21875 198.882812 139.824219 199.527344 139.726562 199.746094 C 139.378906 200.539062 138.191406 202.117188 138.316406 202.972656 C 138.355469 203.230469 139.683594 202.3125 139.898438 202.566406 C 140.125 202.839844 139.773438 203.398438 139.65625 203.648438 C 139.195312 204.601562 138.683594 205.535156 138.191406 206.472656 C 138.140625 206.566406 137.582031 207.425781 137.710938 207.511719 C 138.042969 207.734375 139.292969 206.417969 139.535156 206.941406 C 139.675781 207.242188 139.304688 207.710938 139.167969 207.964844 C 138.785156 208.65625 138.363281 209.328125 137.875 209.964844 C 137.683594 210.214844 137.242188 210.570312 137.183594 210.875 C 137.179688 210.882812 138.832031 210.300781 138.820312 210.878906 C 138.8125 211.398438 138.167969 212.046875 137.832031 212.425781 C 136.8125 213.582031 135.144531 215.285156 132.671875 215.273438 Z M 132.671875 215.273438 " fill-opacity="1" fill-rule="evenodd"/></svg>