<svg width="321" height="96" viewBox="0 0 321 96" fill="none" xmlns="http://www.w3.org/2000/svg">
<rect x="5" y="13.9999" width="310" height="66" rx="33" fill="#448D9C"/>
<path d="M78.9614 39.3799L84.1314 52.5139L89.2794 39.3799H91.3694L85.0334 54.9999H83.2294L76.8714 39.3799H78.9614ZM91.1043 51.6779C91.1043 50.9446 91.3097 50.3139 91.7203 49.7859C92.1457 49.2433 92.725 48.8253 93.4583 48.5319C94.1917 48.2386 95.0423 48.0919 96.0103 48.0919C96.5237 48.0919 97.0663 48.1359 97.6383 48.2239C98.2103 48.2973 98.7163 48.4146 99.1563 48.5759V47.7399C99.1563 46.8599 98.8923 46.1706 98.3643 45.6719C97.8363 45.1586 97.0883 44.9019 96.1203 44.9019C95.4897 44.9019 94.881 45.0193 94.2943 45.2539C93.7223 45.4739 93.1137 45.7966 92.4683 46.2219L91.7643 44.8579C92.5123 44.3446 93.2603 43.9633 94.0083 43.7139C94.7563 43.4499 95.5337 43.3179 96.3403 43.3179C97.807 43.3179 98.9657 43.7286 99.8163 44.5499C100.667 45.3566 101.092 46.4859 101.092 47.9379V52.7999C101.092 53.0346 101.136 53.2106 101.224 53.3279C101.327 53.4306 101.488 53.4893 101.708 53.5039V54.9999C101.518 55.0293 101.349 55.0513 101.202 55.0659C101.07 55.0806 100.96 55.0879 100.872 55.0879C100.418 55.0879 100.073 54.9633 99.8383 54.7139C99.6183 54.4646 99.4937 54.2006 99.4643 53.9219L99.4203 53.1959C98.9217 53.8413 98.269 54.3399 97.4623 54.6919C96.6557 55.0439 95.8563 55.2199 95.0643 55.2199C94.3017 55.2199 93.6197 55.0659 93.0183 54.7579C92.417 54.4353 91.9477 54.0099 91.6103 53.4819C91.273 52.9393 91.1043 52.3379 91.1043 51.6779ZM98.5843 52.4919C98.7603 52.2866 98.8997 52.0813 99.0023 51.8759C99.105 51.6559 99.1563 51.4726 99.1563 51.3259V49.8959C98.7017 49.7199 98.225 49.5879 97.7263 49.4999C97.2277 49.3973 96.7363 49.3459 96.2523 49.3459C95.2697 49.3459 94.4703 49.5439 93.8543 49.9399C93.253 50.3213 92.9523 50.8493 92.9523 51.5239C92.9523 51.8906 93.0477 52.2499 93.2383 52.6019C93.4437 52.9393 93.737 53.2179 94.1183 53.4379C94.5143 53.6579 94.9983 53.7679 95.5703 53.7679C96.1717 53.7679 96.7437 53.6506 97.2863 53.4159C97.829 53.1666 98.2617 52.8586 98.5843 52.4919ZM121.502 54.9999H119.566V48.5759C119.566 47.3733 119.368 46.4859 118.972 45.9139C118.591 45.3419 118.019 45.0559 117.256 45.0559C116.479 45.0559 115.775 45.3419 115.144 45.9139C114.513 46.4713 114.066 47.1973 113.802 48.0919V54.9999H111.866V48.5759C111.866 47.3586 111.675 46.4713 111.294 45.9139C110.913 45.3419 110.341 45.0559 109.578 45.0559C108.815 45.0559 108.111 45.3346 107.466 45.8919C106.835 46.4346 106.388 47.1606 106.124 48.0699V54.9999H104.188V43.5159H105.948V45.9799C106.417 45.1293 107.026 44.4766 107.774 44.0219C108.522 43.5526 109.365 43.3179 110.304 43.3179C111.257 43.3179 112.02 43.5819 112.592 44.1099C113.164 44.6233 113.516 45.2906 113.648 46.1119C114.161 45.2026 114.785 44.5133 115.518 44.0439C116.251 43.5599 117.087 43.3179 118.026 43.3179C118.686 43.3179 119.236 43.4426 119.676 43.6919C120.131 43.9266 120.49 44.2639 120.754 44.7039C121.018 45.1293 121.209 45.6353 121.326 46.2219C121.443 46.8086 121.502 47.4466 121.502 48.1359V54.9999ZM129.528 55.2199C128.663 55.2199 127.878 55.0659 127.174 54.7579C126.47 54.4353 125.862 54.0026 125.348 53.4599C124.835 52.9026 124.439 52.2646 124.16 51.5459C123.882 50.8273 123.742 50.0719 123.742 49.2799C123.742 48.4733 123.882 47.7106 124.16 46.9919C124.439 46.2733 124.835 45.6426 125.348 45.0999C125.862 44.5426 126.47 44.1099 127.174 43.8019C127.893 43.4793 128.678 43.3179 129.528 43.3179C130.394 43.3179 131.178 43.4793 131.882 43.8019C132.586 44.1099 133.195 44.5426 133.708 45.0999C134.236 45.6426 134.64 46.2733 134.918 46.9919C135.197 47.7106 135.336 48.4733 135.336 49.2799C135.336 50.0719 135.197 50.8273 134.918 51.5459C134.64 52.2646 134.244 52.9026 133.73 53.4599C133.217 54.0026 132.601 54.4353 131.882 54.7579C131.178 55.0659 130.394 55.2199 129.528 55.2199ZM125.722 49.3019C125.722 50.0939 125.891 50.8126 126.228 51.4579C126.58 52.1033 127.042 52.6166 127.614 52.9979C128.186 53.3646 128.824 53.5479 129.528 53.5479C130.232 53.5479 130.87 53.3573 131.442 52.9759C132.029 52.5946 132.491 52.0813 132.828 51.4359C133.18 50.7759 133.356 50.0499 133.356 49.2579C133.356 48.4659 133.18 47.7473 132.828 47.1019C132.491 46.4566 132.029 45.9433 131.442 45.5619C130.87 45.1806 130.232 44.9899 129.528 44.9899C128.824 44.9899 128.186 45.1879 127.614 45.5839C127.042 45.9653 126.58 46.4786 126.228 47.1239C125.891 47.7693 125.722 48.4953 125.722 49.3019ZM141.62 55.2199C140.667 55.2199 139.772 55.0659 138.936 54.7579C138.1 54.4353 137.381 53.9586 136.78 53.3279L137.528 51.9639C138.188 52.5799 138.848 53.0199 139.508 53.2839C140.168 53.5479 140.843 53.6799 141.532 53.6799C142.324 53.6799 142.969 53.5333 143.468 53.2399C143.967 52.9319 144.216 52.4846 144.216 51.8979C144.216 51.4726 144.084 51.1573 143.82 50.9519C143.571 50.7466 143.211 50.5779 142.742 50.4459C142.273 50.2993 141.715 50.1379 141.07 49.9619C140.278 49.7273 139.611 49.4779 139.068 49.2139C138.525 48.9499 138.115 48.6199 137.836 48.2239C137.557 47.8279 137.418 47.3293 137.418 46.7279C137.418 45.9946 137.609 45.3786 137.99 44.8799C138.371 44.3666 138.892 43.9779 139.552 43.7139C140.227 43.4499 140.989 43.3179 141.84 43.3179C142.691 43.3179 143.461 43.4499 144.15 43.7139C144.839 43.9779 145.433 44.3666 145.932 44.8799L145.052 46.2219C144.597 45.7526 144.099 45.4079 143.556 45.1879C143.013 44.9533 142.405 44.8359 141.73 44.8359C141.334 44.8359 140.945 44.8873 140.564 44.9899C140.183 45.0779 139.867 45.2466 139.618 45.4959C139.369 45.7306 139.244 46.0679 139.244 46.5079C139.244 46.8746 139.339 47.1679 139.53 47.3879C139.735 47.5933 140.029 47.7693 140.41 47.9159C140.806 48.0626 141.283 48.2239 141.84 48.3999C142.705 48.6493 143.453 48.8986 144.084 49.1479C144.729 49.3973 145.228 49.7199 145.58 50.1159C145.932 50.5119 146.108 51.0619 146.108 51.7659C146.108 52.8513 145.697 53.7019 144.876 54.3179C144.055 54.9193 142.969 55.2199 141.62 55.2199ZM159.071 55.2199C158.205 55.2199 157.413 55.0659 156.695 54.7579C155.991 54.4353 155.375 53.9953 154.847 53.4379C154.333 52.8806 153.93 52.2426 153.637 51.5239C153.358 50.8053 153.219 50.0426 153.219 49.2359C153.219 48.1506 153.461 47.1606 153.945 46.2659C154.429 45.3713 155.111 44.6599 155.991 44.1319C156.871 43.5893 157.89 43.3179 159.049 43.3179C160.178 43.3179 161.161 43.5746 161.997 44.0879C162.847 44.5866 163.478 45.2613 163.889 46.1119L161.997 46.7059C161.703 46.1633 161.293 45.7453 160.765 45.4519C160.237 45.1439 159.65 44.9899 159.005 44.9899C158.301 44.9899 157.655 45.1733 157.069 45.5399C156.497 45.9066 156.042 46.4126 155.705 47.0579C155.367 47.6886 155.199 48.4146 155.199 49.2359C155.199 50.0426 155.367 50.7759 155.705 51.4359C156.057 52.0813 156.519 52.5946 157.091 52.9759C157.677 53.3573 158.323 53.5479 159.027 53.5479C159.481 53.5479 159.914 53.4673 160.325 53.3059C160.75 53.1446 161.117 52.9319 161.425 52.6679C161.747 52.3893 161.967 52.0886 162.085 51.7659L163.977 52.3379C163.742 52.8953 163.383 53.3939 162.899 53.8339C162.429 54.2593 161.865 54.5966 161.205 54.8459C160.559 55.0953 159.848 55.2199 159.071 55.2199ZM171.079 55.2199C170.214 55.2199 169.429 55.0659 168.725 54.7579C168.021 54.4353 167.412 54.0026 166.899 53.4599C166.386 52.9026 165.99 52.2646 165.711 51.5459C165.432 50.8273 165.293 50.0719 165.293 49.2799C165.293 48.4733 165.432 47.7106 165.711 46.9919C165.99 46.2733 166.386 45.6426 166.899 45.0999C167.412 44.5426 168.021 44.1099 168.725 43.8019C169.444 43.4793 170.228 43.3179 171.079 43.3179C171.944 43.3179 172.729 43.4793 173.433 43.8019C174.137 44.1099 174.746 44.5426 175.259 45.0999C175.787 45.6426 176.19 46.2733 176.469 46.9919C176.748 47.7106 176.887 48.4733 176.887 49.2799C176.887 50.0719 176.748 50.8273 176.469 51.5459C176.19 52.2646 175.794 52.9026 175.281 53.4599C174.768 54.0026 174.152 54.4353 173.433 54.7579C172.729 55.0659 171.944 55.2199 171.079 55.2199ZM167.273 49.3019C167.273 50.0939 167.442 50.8126 167.779 51.4579C168.131 52.1033 168.593 52.6166 169.165 52.9979C169.737 53.3646 170.375 53.5479 171.079 53.5479C171.783 53.5479 172.421 53.3573 172.993 52.9759C173.58 52.5946 174.042 52.0813 174.379 51.4359C174.731 50.7759 174.907 50.0499 174.907 49.2579C174.907 48.4659 174.731 47.7473 174.379 47.1019C174.042 46.4566 173.58 45.9433 172.993 45.5619C172.421 45.1806 171.783 44.9899 171.079 44.9899C170.375 44.9899 169.737 45.1879 169.165 45.5839C168.593 45.9653 168.131 46.4786 167.779 47.1239C167.442 47.7693 167.273 48.4953 167.273 49.3019ZM196.547 54.9999H194.611V48.5759C194.611 47.3733 194.413 46.4859 194.017 45.9139C193.636 45.3419 193.064 45.0559 192.301 45.0559C191.524 45.0559 190.82 45.3419 190.189 45.9139C189.558 46.4713 189.111 47.1973 188.847 48.0919V54.9999H186.911V48.5759C186.911 47.3586 186.72 46.4713 186.339 45.9139C185.958 45.3419 185.386 45.0559 184.623 45.0559C183.86 45.0559 183.156 45.3346 182.511 45.8919C181.88 46.4346 181.433 47.1606 181.169 48.0699V54.9999H179.233V43.5159H180.993V45.9799C181.462 45.1293 182.071 44.4766 182.819 44.0219C183.567 43.5526 184.41 43.3179 185.349 43.3179C186.302 43.3179 187.065 43.5819 187.637 44.1099C188.209 44.6233 188.561 45.2906 188.693 46.1119C189.206 45.2026 189.83 44.5133 190.563 44.0439C191.296 43.5599 192.132 43.3179 193.071 43.3179C193.731 43.3179 194.281 43.4426 194.721 43.6919C195.176 43.9266 195.535 44.2639 195.799 44.7039C196.063 45.1293 196.254 45.6353 196.371 46.2219C196.488 46.8086 196.547 47.4466 196.547 48.1359V54.9999ZM204.639 55.2199C203.774 55.2199 202.982 55.0659 202.263 54.7579C201.559 54.4353 200.943 54.0026 200.415 53.4599C199.902 52.9026 199.498 52.2646 199.205 51.5459C198.926 50.8273 198.787 50.0646 198.787 49.2579C198.787 48.1726 199.036 47.1826 199.535 46.2879C200.034 45.3933 200.723 44.6746 201.603 44.1319C202.498 43.5893 203.517 43.3179 204.661 43.3179C205.82 43.3179 206.824 43.5966 207.675 44.1539C208.54 44.6966 209.208 45.4153 209.677 46.3099C210.161 47.1899 210.403 48.1433 210.403 49.1699C210.403 49.3166 210.396 49.4633 210.381 49.6099C210.381 49.7419 210.374 49.8446 210.359 49.9179H200.833C200.892 50.6659 201.097 51.3333 201.449 51.9199C201.816 52.4919 202.285 52.9466 202.857 53.2839C203.429 53.6066 204.045 53.7679 204.705 53.7679C205.409 53.7679 206.069 53.5919 206.685 53.2399C207.316 52.8879 207.748 52.4259 207.983 51.8539L209.655 52.3159C209.406 52.8733 209.032 53.3719 208.533 53.8119C208.049 54.2519 207.47 54.5966 206.795 54.8459C206.135 55.0953 205.416 55.2199 204.639 55.2199ZM200.767 48.5759H208.599C208.54 47.8279 208.328 47.1679 207.961 46.5959C207.594 46.0239 207.125 45.5766 206.553 45.2539C205.981 44.9313 205.35 44.7699 204.661 44.7699C203.986 44.7699 203.363 44.9313 202.791 45.2539C202.219 45.5766 201.75 46.0239 201.383 46.5959C201.031 47.1679 200.826 47.8279 200.767 48.5759ZM217.637 55.2199C216.772 55.2199 215.98 55.0659 215.261 54.7579C214.557 54.4353 213.941 53.9953 213.413 53.4379C212.9 52.8806 212.496 52.2426 212.203 51.5239C211.924 50.8053 211.785 50.0426 211.785 49.2359C211.785 48.1506 212.027 47.1606 212.511 46.2659C212.995 45.3713 213.677 44.6599 214.557 44.1319C215.437 43.5893 216.456 43.3179 217.615 43.3179C218.744 43.3179 219.727 43.5746 220.563 44.0879C221.414 44.5866 222.044 45.2613 222.455 46.1119L220.563 46.7059C220.27 46.1633 219.859 45.7453 219.331 45.4519C218.803 45.1439 218.216 44.9899 217.571 44.9899C216.867 44.9899 216.222 45.1733 215.635 45.5399C215.063 45.9066 214.608 46.4126 214.271 47.0579C213.934 47.6886 213.765 48.4146 213.765 49.2359C213.765 50.0426 213.934 50.7759 214.271 51.4359C214.623 52.0813 215.085 52.5946 215.657 52.9759C216.244 53.3573 216.889 53.5479 217.593 53.5479C218.048 53.5479 218.48 53.4673 218.891 53.3059C219.316 53.1446 219.683 52.9319 219.991 52.6679C220.314 52.3893 220.534 52.0886 220.651 51.7659L222.543 52.3379C222.308 52.8953 221.949 53.3939 221.465 53.8339C220.996 54.2593 220.431 54.5966 219.771 54.8459C219.126 55.0953 218.414 55.2199 217.637 55.2199ZM217.373 59.0919C216.992 59.0919 216.574 59.0406 216.119 58.9379C215.679 58.8353 215.246 58.6813 214.821 58.4759L215.349 57.3979C215.642 57.5446 215.914 57.6619 216.163 57.7499C216.427 57.8379 216.72 57.8819 217.043 57.8819C217.498 57.8819 217.85 57.7866 218.099 57.5959C218.348 57.4199 218.473 57.1559 218.473 56.8039C218.473 56.4373 218.341 56.1146 218.077 55.8359C217.828 55.5573 217.468 55.2786 216.999 54.9999L217.703 54.4939C218.304 54.8606 218.788 55.2419 219.155 55.6379C219.522 56.0339 219.705 56.5326 219.705 57.1339C219.705 57.7353 219.5 58.2119 219.089 58.5639C218.678 58.9159 218.106 59.0919 217.373 59.0919ZM223.835 51.6779C223.835 50.9446 224.04 50.3139 224.451 49.7859C224.876 49.2433 225.455 48.8253 226.189 48.5319C226.922 48.2386 227.773 48.0919 228.741 48.0919C229.254 48.0919 229.797 48.1359 230.369 48.2239C230.941 48.2973 231.447 48.4146 231.887 48.5759V47.7399C231.887 46.8599 231.623 46.1706 231.095 45.6719C230.567 45.1586 229.819 44.9019 228.851 44.9019C228.22 44.9019 227.611 45.0193 227.025 45.2539C226.453 45.4739 225.844 45.7966 225.199 46.2219L224.495 44.8579C225.243 44.3446 225.991 43.9633 226.739 43.7139C227.487 43.4499 228.264 43.3179 229.071 43.3179C230.537 43.3179 231.696 43.7286 232.547 44.5499C233.397 45.3566 233.823 46.4859 233.823 47.9379V52.7999C233.823 53.0346 233.867 53.2106 233.955 53.3279C234.057 53.4306 234.219 53.4893 234.439 53.5039V54.9999C234.248 55.0293 234.079 55.0513 233.933 55.0659C233.801 55.0806 233.691 55.0879 233.603 55.0879C233.148 55.0879 232.803 54.9633 232.569 54.7139C232.349 54.4646 232.224 54.2006 232.195 53.9219L232.151 53.1959C231.652 53.8413 230.999 54.3399 230.193 54.6919C229.386 55.0439 228.587 55.2199 227.795 55.2199C227.032 55.2199 226.35 55.0659 225.749 54.7579C225.147 54.4353 224.678 54.0099 224.341 53.4819C224.003 52.9393 223.835 52.3379 223.835 51.6779ZM231.315 52.4919C231.491 52.2866 231.63 52.0813 231.733 51.8759C231.835 51.6559 231.887 51.4726 231.887 51.3259V49.8959C231.432 49.7199 230.955 49.5879 230.457 49.4999C229.958 49.3973 229.467 49.3459 228.983 49.3459C228 49.3459 227.201 49.5439 226.585 49.9399C225.983 50.3213 225.683 50.8493 225.683 51.5239C225.683 51.8906 225.778 52.2499 225.969 52.6019C226.174 52.9393 226.467 53.2179 226.849 53.4379C227.245 53.6579 227.729 53.7679 228.301 53.7679C228.902 53.7679 229.474 53.6506 230.017 53.4159C230.559 53.1666 230.992 52.8586 231.315 52.4919ZM242.99 45.2099C242.022 45.2246 241.164 45.4739 240.416 45.9579C239.683 46.4273 239.162 47.0799 238.854 47.9159V54.9999H236.918V43.5159H238.722V46.1779C239.118 45.3859 239.639 44.7479 240.284 44.2639C240.944 43.7653 241.634 43.4866 242.352 43.4279C242.499 43.4279 242.624 43.4279 242.726 43.4279C242.829 43.4279 242.917 43.4353 242.99 43.4499V45.2099Z" fill="white"/>
<path d="M269.361 20.4226C298.468 23.9992 301.753 35.4753 309.921 51.2069C310.116 51.2911 309.391 51.8305 305.522 54.3148C304.265 54.9579 302.919 55.4111 301.529 55.6596C266.703 59.0274 252 6.12327 252 6.12327C255.778 12.1492 278.017 10.7975 294.154 12.4327C310.29 14.0679 317.923 26.9112 318.536 33.2433C318.531 37.7596 316.981 42.1382 314.143 45.6518C301.021 17.361 269.361 20.4226 269.361 20.4226Z" fill="#193339"/>
<path d="M306.537 70.12C289.696 67.9029 286.189 73.8617 279.326 81.4983C279.205 81.5172 279.533 81.9249 281.342 83.8793C281.954 84.4223 282.643 84.8716 283.386 85.2126C302.427 92.1538 318.347 64.6202 318.347 64.6202C315.354 67.4512 303.079 63.4668 293.793 62.0427C284.507 60.6186 278.364 66.7132 277.102 70.1752C276.449 72.7084 276.683 75.3887 277.765 77.7706C289.227 63.8099 306.537 70.12 306.537 70.12Z" fill="#193339"/>
<path d="M51.9806 73.6485C22.7939 70.7979 19.224 59.4072 10.6665 43.8839C10.4696 43.8046 11.181 43.2473 14.9871 40.6674C16.2276 39.9932 17.5613 39.5066 18.9447 39.2236C53.6764 34.9895 69.6923 87.5111 69.6923 87.5111C65.765 81.5812 43.5668 83.4862 27.3947 82.2534C11.2227 81.0206 3.27189 68.3713 2.50205 62.0565C2.39457 57.5415 3.83502 53.1256 6.58411 49.5425C20.4063 77.4977 51.9806 73.6485 51.9806 73.6485Z" fill="#193339"/>
<path d="M13.5785 24.8924C30.4693 26.6894 33.8269 20.6452 40.4974 12.84C40.6184 12.818 40.28 12.4187 38.4227 10.5099C37.7978 9.98229 37.0981 9.55026 36.3464 9.22791C17.1387 2.76309 1.90921 30.6846 1.90921 30.6846C4.83078 27.78 17.2008 31.4574 26.5193 32.6498C35.8377 33.8422 41.8278 27.5965 43.0032 24.1042C43.5924 21.5554 43.2918 18.8819 42.1514 16.5276C31.0401 30.7695 13.5785 24.8924 13.5785 24.8924Z" fill="#193339"/>
</svg>
